<?xml version="1.0" encoding="utf-8"?>
<!-- Generator: Adobe Illustrator 24.0.0, SVG Export Plug-In . SVG Version: 6.00 Build 0)  -->
<svg version="1.1" id="Capa_1" xmlns="http://www.w3.org/2000/svg" xmlns:xlink="http://www.w3.org/1999/xlink" x="0px" y="0px"
	 viewBox="0 0 256 256" style="enable-background:new 0 0 256 256;" xml:space="preserve">
<style type="text/css">
	.st0{opacity:0.8;fill:#ADADAD;}
	.st1{fill:#5C5C5C;}
	.st2{opacity:0.8;fill:#9C9C9C;}
	.st3{opacity:0.59;fill:#8E1932;}
	.st4{opacity:0.8;fill:#2EAA60;}
	.st5{fill:#CFD8DC;}
	.st6{fill:#F5F5F5;}
	.st7{stroke:#000000;stroke-width:5;stroke-miterlimit:10;}
	.st8{stroke:#000000;stroke-miterlimit:10;}
	.st9{fill:#FFFFFF;stroke:#FFFFFF;stroke-width:5;stroke-miterlimit:10;}
</style>
<g transform="translate(0 -1)">
	<g transform="translate(1 2)">
		<path class="st0" d="M171.5,171.1h23.3c2.5,0,4.8,1.3,6,3.5l20.1,35.9c1.1,2.1,1,4.6-0.2,6.6c-1.2,2-3.5,3.1-5.8,3H39.1
			c-2.3,0.1-4.6-1.1-5.8-3c-1.2-2-1.3-4.5-0.2-6.6l20.1-35.9c1.2-2.2,3.6-3.5,6-3.5H171.5z"/>
		<path class="st1" d="M214.9,220.1H78c0,0,65.3-6.5,81.7-49h35.1c2.5,0,4.8,1.3,6,3.5l20.1,35.9c1.1,2.1,1,4.6-0.2,6.6
			C219.4,219,217.2,220.2,214.9,220.1z"/>
		<path class="st2" d="M201.8,220.1H78c0,0,65.3-6.5,81.7-49h22.1c2.5,0,4.8,1.3,6,3.5l20.1,35.9c1.1,2.1,1,4.6-0.2,6.6
			C206.4,219,204.2,220.2,201.8,220.1z"/>
		<path class="st3" d="M189.1,96.1c0,8.6-3.9,19.4-9.7,30.8c-6.3,11.9-13.4,23.4-21.3,34.4c-7.8,10.9-15.5,20.8-21.3,27.9
			c-1.8,2.2-3.4,4.1-4.7,5.7c-1.2,1.5-3,2.3-4.9,2.3s-3.7-0.8-5-2.2l-0.1-0.1c-1.3-1.6-2.9-3.5-4.7-5.7c-5.8-7.1-13.6-17-21.3-27.9
			c-7.9-10.9-15-22.4-21.3-34.4c-5.8-11.4-9.7-22.3-9.7-30.8c0-25,14.9-47.5,37.9-57.3c6.1-2.6,12.6-4.2,19.3-4.7
			c1.6-0.1,3.3-0.2,4.9-0.2c16.5,0,32.3,6.5,43.9,18.2C182.6,63.8,189.1,79.6,189.1,96.1z"/>
		<path class="st4" d="M179.3,96.1c0,8.6-3.9,19.4-9.7,30.8c-6.3,11.9-13.4,23.4-21.3,34.4c-7.8,10.9-15.5,20.8-21.3,27.9
			c-1.8,2.2-3.4,4.1-4.7,5.7l-0.1,0.1l-0.1-0.1c-1.3-1.6-2.9-3.5-4.7-5.7c-5.8-7.1-13.6-17-21.3-27.9c-7.9-10.9-15-22.4-21.3-34.4
			c-5.8-11.4-9.7-22.3-9.7-30.8c0-25,14.9-47.5,37.9-57.3c6.1-2.6,12.6-4.2,19.3-4.7c6.6,0.5,13.1,2.1,19.3,4.7
			C164.4,48.5,179.3,71.1,179.3,96.1z"/>
		<path class="st5" d="M156.4,92.7c0,16.2-13.2,29.4-29.4,29.4c-1.6,0-3.3-0.1-4.9-0.4c-14.1-2.4-24.5-14.7-24.5-29
			s10.3-26.6,24.5-29c1.6-0.3,3.3-0.4,4.9-0.4C143.2,63.3,156.4,76.5,156.4,92.7z"/>
		<path class="st6" d="M146.6,92.7c0,14.3-10.4,26.6-24.5,29c-14.1-2.4-24.5-14.7-24.5-29s10.3-26.6,24.5-29
			C136.2,66.1,146.6,78.4,146.6,92.7z"/>
	</g>
	<g>
		<path class="st7" d="M94.3,165.2c8.1,11.4,16.1,21.6,21.5,28.1c0.8,1,1.5,1.8,2.2,2.7h-16.1c-1.8,0-3.3,1.5-3.3,3.3
			s1.5,3.3,3.3,3.3h52.3c1.8,0,3.3-1.5,3.3-3.3s-1.5-3.3-3.3-3.3H138c0.7-0.9,1.4-1.7,2.2-2.7c5.3-6.5,13.4-16.7,21.5-28.1
			c8-11.1,15.2-22.7,21.6-34.8c6.7-13.1,10.1-24,10.1-32.3c0-17.3-6.9-34-19.1-46.3c-0.8-0.8-2-1.2-3.2-0.9c-1.1,0.3-2,1.2-2.3,2.3
			c-0.3,1.1,0,2.4,0.9,3.2c11,11,17.2,26,17.2,41.6c0,7.3-3.1,17.2-9.3,29.4c-6.2,11.8-13.3,23.2-21.1,34
			c-8,11.2-15.9,21.3-21.2,27.8c-1.8,2.1-3.3,4.1-4.7,5.7c-0.6,0.7-1.5,1.1-2.5,1.1s-1.9-0.4-2.5-1.1c-1.3-1.6-2.9-3.5-4.7-5.7
			c-5.3-6.5-13.2-16.5-21.2-27.8c-7.8-10.8-14.9-22.2-21.1-34c-6.2-12.2-9.3-22-9.3-29.4c0-23.7,14.1-45,35.9-54.3
			c14.6-6.1,31.1-6.1,45.8,0c1.1,0.5,2.3,0.3,3.2-0.4c0.9-0.7,1.4-1.8,1.3-3c-0.1-1.2-0.9-2.2-2-2.6c-33.3-14-71.6,1.6-85.6,34.8
			c-3.4,8.1-5.2,16.7-5.1,25.5c0,8.3,3.4,19.2,10.1,32.3C79.1,142.5,86.3,154.1,94.3,165.2z"/>
		<path class="st8" d="M128,68.6c1.8,0,3.3-1.5,3.3-3.3c0-1.8-1.5-3.3-3.3-3.3c-15.6,0-29,11-32,26.3c-3,15.3,5.1,30.6,19.5,36.6
			c14.4,6,31,0.9,39.7-12c8.7-13,7-30.2-4.1-41.2c-0.8-0.8-2-1.2-3.2-0.9c-1.1,0.3-2,1.2-2.3,2.3c-0.3,1.1,0,2.4,0.9,3.2
			c8.8,8.8,10.2,22.6,3.3,33c-6.9,10.4-20.2,14.4-31.7,9.6c-11.5-4.8-18.1-17-15.6-29.2S115.5,68.6,128,68.6z"/>
		<path class="st7" d="M40.1,225.4h175.7c3.6,0,7-1.8,8.8-5c1.7-2.9,1.8-6.6,0.1-9.5L204.7,175c-1.8-3.2-5.2-5.2-8.9-5.1h-23.3
			c-1.8,0-3.3,1.5-3.3,3.3c0,1.8,1.5,3.3,3.3,3.3h23.3c1.3,0,2.5,0.7,3.2,1.8l20.1,35.9c0.5,0.9,0.5,2.1,0,3
			c-0.7,1.1-1.9,1.8-3.2,1.7H40.1c-1.3,0-2.5-0.6-3.2-1.7c-0.6-0.9-0.6-2.1,0-3L57,178.2c0.7-1.1,1.9-1.8,3.2-1.8h23.3
			c1.8,0,3.3-1.5,3.3-3.3c0-1.8-1.5-3.3-3.3-3.3H60.2c-3.7,0-7.1,1.9-8.9,5.1l-20.1,35.9c-1.7,3-1.6,6.6,0.1,9.5
			C33.2,223.5,36.5,225.4,40.1,225.4z"/>
		<path class="st9" d="M190.1,186.2H177c-0.6,0-1.3,0.2-1.8,0.5l-9.8,6.5c-1.5,1-1.9,3-0.9,4.5c1,1.5,3,1.9,4.5,0.9l9-6h12.1
			c1.8,0,3.3-1.5,3.3-3.3C193.3,187.6,191.9,186.2,190.1,186.2z"/>
		<path class="st9" d="M170.5,209c0,1.8,1.5,3.3,3.3,3.3h26.1c1.8,0,3.3-1.5,3.3-3.3c0-1.8-1.5-3.3-3.3-3.3h-26.1
			C171.9,205.8,170.5,207.2,170.5,209z"/>
		<path class="st9" d="M88.8,199.2c1.4,0,2.7-0.9,3.1-2.3s-0.1-2.9-1.3-3.7l-9.8-6.5c-0.5-0.4-1.2-0.5-1.8-0.5H65.9
			c-1.8,0-3.3,1.5-3.3,3.3c0,1.8,1.5,3.3,3.3,3.3H78l9,6C87.5,199,88.2,199.2,88.8,199.2z"/>
		<path class="st9" d="M56.1,205.8c-1.8,0-3.3,1.5-3.3,3.3c0,1.8,1.5,3.3,3.3,3.3h26.1c1.8,0,3.3-1.5,3.3-3.3c0-1.8-1.5-3.3-3.3-3.3
			H56.1z"/>
	</g>
</g>
</svg>
