<svg version="1.1" id="图层_1" xmlns="http://www.w3.org/2000/svg" x="0" y="0" viewBox="0 0 36 36" xml:space="preserve"><style>.st1{enable-background:new}</style><path d="M0 0h36v36H0V0z" fill="#fff"/><g class="st1"><path d="M17.4 12.4c.1.1.1.2.1.3s0 .2-.1.3-.2.1-.3.1H17s-.1 0-.1.1c-.3 1.5-.8 2.8-1.5 3.8v.1c.2.3.5.6.8.8s.6.5.9.6c.1.1.2.1.2.3v.1c0 .1 0 .2-.1.3-.1.1-.2.2-.4.2h-.1c-.1 0-.2 0-.3-.1-.6-.4-1.2-.9-1.7-1.5h-.1c-.5.6-1.2 1.1-2 1.5-.1 0-.1.1-.2.1h-.2c-.1 0-.2-.1-.3-.2-.1-.1-.1-.1-.1-.2v-.1c0-.1.1-.2.2-.3.8-.4 1.4-.9 1.9-1.5V17c-.4-.8-.8-1.7-1.1-2.7-.1.2-.2.4-.4.6-.1.1-.2.2-.4.2-.1 0-.3 0-.4-.1-.1 0-.1-.1-.1-.1v4.4c0 .1 0 .2-.1.3s-.2.1-.3.1-.2 0-.3-.1-.1-.2-.1-.3v-2.1c-.8.3-1.4.4-1.8.6h-.1c-.1 0-.2 0-.2-.1l-.3-.3v-.1c0-.1 0-.1.1-.2s.2-.2.3-.2h.1s.1 0 .1-.1v-4.5c0-.1 0-.2.1-.3s.2-.1.3-.1.2 0 .3.1.1.2.1.3v4.3l.9-.2s.1 0 .1-.1V11c0-.1 0-.2.1-.3s.2-.1.3-.1.2 0 .3.1.1.2.1.3v3.4c.7-.9 1.2-2 1.6-3.5 0-.1.1-.2.2-.3.1-.1.2-.1.3-.1h.1c.1 0 .2.1.3.2 0 .1.1.1.1.2v.1c-.1.4-.2.8-.3 1.1h3c.4.2.6.2.6.3zm-1.4.8l-2.2-.1c-.1 0-.1 0-.1.1.3 1.1.6 2.1 1.1 2.9.6-.7 1-1.7 1.2-2.9zM26.1 14.6c0-.1.1-.2.2-.3.1-.1.2-.1.2-.1h.1c.1 0 .2.1.3.2 0 .1.1.1.1.2v.1c-.2 1-.6 2-1.1 2.8v.1c.2.8.5 1.2.8 1.2.2 0 .3-.3.3-.9 0-.1 0-.1.1-.2s.1 0 .2 0c.2.1.3.3.3.5v.1c-.1.5-.2.8-.3 1s-.4.3-.7.3c-.5 0-.9-.4-1.3-1.2-.3.3-.5.6-.8.9-.1.1-.2.1-.3.1-.1 0-.2-.1-.3-.1-.1-.1-.1-.2-.1-.3s0-.2.1-.3c.1-.1.2-.2.3-.2h-1.9s-.1 0-.1.1v.2c0 .1 0 .2-.1.2s-.1.1-.2.1-.2 0-.2-.1-.1-.1-.1-.2v-4c0-.2.1-.3.2-.4s.2-.2.4-.2h2c.1 0 .2 0 .2.1s.1.1.1.2 0 .2-.1.2-.1.1-.2.1h-.5c-.1 0-.1 0-.1.1v.4c0 .1 0 .1.1.1h.3c.2 0 .3.1.4.2s.2.2.2.4v.7c0 .2-.1.3-.2.4s-.2.2-.4.2h-.3c-.1 0-.1 0-.1.1v.5c0 .1 0 .1.1.1h.7c.1 0 .1 0 .2.1s.1.1.1.2c.2-.2.4-.5.5-.7v-.1c-.2-.9-.4-2.1-.5-3.6 0 0 0-.1-.1-.1H21c-.1 0-.1 0-.1.1v2c0 1.6-.2 2.8-.5 3.6 0 .1-.1.1-.2.2s-.2 0-.3 0c-.1 0-.2-.1-.2-.2v-.3c.2-.5.3-1.2.4-2 0-.1 0-.1-.1-.1h-.5s-.1 0-.1.1v.3c0 .9-.2 1.7-.5 2.2-.1.1-.1.1-.2.1s-.2 0-.2-.1-.1-.1-.1-.2v-.2c.3-.5.4-1.1.4-1.8v-.3s0-.1-.1-.1h-.1c-.1 0-.2 0-.3-.1s-.1-.2-.1-.3 0-.2.1-.3.2-.1.3-.1H20s.1 0 .1-.1v-.6c0-.1 0-.1-.1-.1h-.6c0 .1 0 .1-.1.2s-.1.1-.2.1H19c-.1 0-.2 0-.2-.1s-.1-.2-.1-.2v-1.9c0-.1 0-.2.1-.2s.2-.4.3-.4.2 0 .2.1.1.2.1.2v1.2c0 .1 0 .1.1.1h.6s.1 0 .1-.1v-1c0-.2.1-.3.2-.4s.2-.2.4-.2h3.6c.1 0 .1 0 .1-.1v-.2c-.1 0-.2 0-.2-.1s-.1-.1-.1-.2V12c0-.1 0-.1-.1-.1h-2.2s-.1 0-.1.1v.1c0 .1 0 .2-.1.3s-.2.1-.3.1-.2 0-.3-.1-.1-.2-.1-.3V12s0-.1-.1-.1H19c-.1 0-.2 0-.3-.1s-.1-.2-.1-.3 0-.2.1-.3.2-.1.3-.1h1.8c.1 0 .1 0 .1-.1v-.1c0-.1 0-.2.1-.3s.2-.1.3-.1.2 0 .3.1.1.2.1.3v.1s0 .1.1.1H24c.1 0 .1 0 .1-.1v-.1c0-.1 0-.2.1-.3s.2-.1.3-.1.2 0 .3.1.1.2.1.3v.1s0 .1.1.1h1.9c.1 0 .2 0 .3.1s.1.2.1.3 0 .2-.1.3-.2.1-.3.1H25s-.1 0-.1.1v.3c.1 0 .1 0 .1.1s.1.1.1.1v.3s0 .1.1.1h.9c-.1-.1-.2-.2-.4-.3-.1-.1-.1-.1-.1-.2s0-.2.1-.2c.1-.1.2-.1.3-.1s.2 0 .3.1c.2.1.3.2.4.3.1.1.1.1.1.2s0 .1-.1.2h.3c.1 0 .2 0 .3.1s.1.2.1.3 0 .2-.1.3-.2.1-.3.1h-1.7s-.1 0-.1.1c.1 1 .1 1.8.3 2.5.3-.5.5-1.1.6-1.7zm-3.3.3c0-.1-.1-.1 0 0l-.6-.1s-.1 0-.1.1v.4c0 .1 0 .1.1.1h.6c.1 0 .1 0 .1-.1v-.4zm.8 1.8s.1 0 0 0l.1-.7c0-.1 0-.1-.1-.1h-1.4s-.1 0-.1.1v.6c0 .1 0 .1.1.1h1.4zm-1.5.6l-.1.6c0 .1 0 .1.1.1h.6c.1 0 .1 0 .1-.1v-.5c0-.1 0-.1-.1-.1h-.6z"/></g><g class="st1"><path d="M5.8 21.3c.2.1.3.3.4.6l-.4.1c-.1-.2-.1-.3-.3-.4-.1-.1-.3-.1-.5-.1-.3 0-.5.1-.6.2-.1.2-.2.4-.2.7v.9c0 .3.1.5.2.7.1.1.3.2.6.2.2 0 .4 0 .5-.1.1-.1.2-.2.3-.4l.4.1c0 .2-.2.4-.4.6-.2.1-.4.2-.7.2-.2 0-.4 0-.5-.1-.2-.1-.3-.2-.4-.3-.2-.2-.3-.6-.3-1v-.9c0-.4.1-.7.3-1 .1-.1.2-.2.4-.3.1-.1.3-.1.5-.1.3.2.5.2.7.4zM8.3 21.2c.2.1.3.1.4.3.2.1.3.5.3.9v.9c0 .4-.1.7-.3 1-.1.1-.2.2-.4.3-.1.1-.3.1-.5.1s-.4 0-.5-.1c-.2-.1-.3-.2-.4-.3-.2-.2-.3-.6-.3-1v-.9c0-.4.1-.7.3-1 .1-.1.2-.2.4-.3.1-.1.3-.1.5-.1.2.1.3.1.5.2zm-1.1.5c-.2.1-.2.4-.2.7v.9c0 .3 0 .5.2.7.1.1.3.2.6.2s.5-.1.6-.2c.1-.2.2-.4.2-.7v-.9c0-.3-.1-.5-.2-.7-.1-.1-.3-.2-.6-.2s-.5 0-.6.2zM11.7 24.2v.4H9.6v-3.5h.4v3.1h1.7zM14.2 24.2v.4h-2.1v-3.5h.4v3.1h1.7zM15.1 21.5v1.2h1.7v.3h-1.7v1.2h1.7v.4h-2.1v-3.5h2.1v.4h-1.7zM19.3 21.3c.2.1.3.3.4.6l-.4.1c0-.2-.1-.3-.3-.4-.1-.1-.3-.1-.5-.1-.3 0-.5.1-.6.2-.1.2-.2.4-.2.7v.9c0 .3.1.5.2.7.1.1.3.2.6.2.2 0 .4 0 .5-.1.1-.1.2-.2.3-.4l.4.1c-.1.3-.2.5-.4.6-.2.1-.4.2-.7.2-.2 0-.4 0-.5-.1-.2-.1-.3-.2-.4-.3-.2-.2-.3-.6-.3-1v-.9c0-.4.1-.7.3-1 .1-.1.2-.2.4-.3.1-.1.3-.1.5-.1.3.2.5.2.7.4zM21.3 21.5v3.1h-.4v-3.1H20v-.4h2.1v.4h-.8zM22.7 24.6v-3.5h.4v3.5h-.4zM25.4 21.2c.2.1.3.1.4.3.2.2.3.6.3 1v.9c0 .4-.1.7-.3 1-.1.1-.2.2-.4.3-.1.1-.3.1-.5.1s-.3 0-.5-.1-.3-.2-.4-.3c-.2-.2-.3-.6-.3-1v-.9c0-.4.1-.7.3-1 .1-.1.2-.2.4-.3.1-.1.3-.1.5-.1s.4 0 .5.1zm-1.1.5c-.1.2-.2.4-.2.7v.9c0 .3.1.5.2.7.1.1.3.2.6.2s.5-.1.6-.2c.1-.2.2-.4.2-.7v-.9c0-.3-.1-.5-.2-.7-.1-.1-.3-.2-.6-.2s-.4 0-.6.2zM28.8 24.6L27.1 22v2.6h-.4v-3.5h.3l1.7 2.6v-2.6h.4v3.5h-.3zM31 21.1c.3 0 .5.1.7.2.2.1.3.3.4.6l-.4.1c0-.2-.1-.3-.3-.4-.1-.1-.3-.1-.5-.1h-.1c-.3 0-.5.1-.6.2-.1.1-.2.2-.2.4s.1.3.2.4c.1.1.4.2.6.2.4 0 .7.1.9.2.2.2.3.4.3.7 0 .3-.1.6-.3.7-.2.2-.5.2-.9.2h-.1c-.3 0-.5-.1-.7-.2-.2-.1-.3-.3-.4-.6l.4-.1c0 .2.1.3.3.4.1.1.3.1.5.1h.1c.3 0 .5-.1.6-.2.1-.1.2-.2.2-.4s-.1-.3-.2-.4c-.1-.1-.3-.2-.6-.2-.4 0-.7-.1-.9-.2-.2-.2-.3-.4-.3-.7s.1-.6.3-.7c.2-.2.5-.2 1-.2z"/></g></svg>