<svg xmlns="http://www.w3.org/2000/svg" viewBox="0 0 36 36"><path d="M0 0h36v36H0V0z" fill="#fff"/><path d="M10.2 13.9c.1.1.2.2.2.3v.1c0 .1 0 .2-.1.3-.1.1-.2.2-.3.2h-.1c-.1 0-.2 0-.3-.1-.3-.2-.5-.3-.8-.5-.1-.1-.2-.1-.2-.2v-.1c0-.1 0-.1.1-.2s.2-.2.3-.2h.3c.3 0 .6.2.9.4zm-.6 2.4c0-.1.1-.2.2-.2h.1c.1 0 .1 0 .2.1s.2.2.2.3v.4c-.3.8-.6 1.6-.8 2.3 0 .1-.1.2-.3.2h-.1c-.1 0-.1 0-.2-.1s-.2-.2-.2-.3v-.4c.3-.7.6-1.5.9-2.3zm.9-5c.1.1.2.2.2.3v.1c0 .1 0 .2-.1.3-.1.1-.2.2-.3.2-.1 0-.2 0-.3-.1-.2-.2-.5-.4-.8-.5-.1-.2-.2-.3-.2-.4v-.3c.1-.1.2-.2.3-.2h.1c.1 0 .2 0 .2.1.4.1.7.3.9.5zm6.7 4.6c.1 0 .2 0 .3.1.1.1.1.2.1.3s0 .2-.1.3-.2.1-.3.1h-.8s-.1 0-.1.1v1.9c0 .2 0 .4-.1.5l-.3.3c-.2.1-.5.1-1 .1-.1 0-.2 0-.3-.1-.1-.1-.2-.2-.2-.3v-.3c.1-.1.1-.1.3-.1h.7v-2s0-.1-.1-.1h-.9c-.1 0-.2 0-.3-.1s-.1-.2-.1-.3 0-.2.1-.3c.1-.1.2-.1.3-.1h.9c.1 0 .1 0 .1-.1v-.5c0-.1 0-.1.1-.2s.1-.1.2-.1h.1c.1-.2.3-.3.5-.6H15c-.1 0-.2 0-.3-.1s-.1-.2-.1-.3c0 .1-.1.1-.2 0-.1 0-.2-.1-.3-.2-.1-.1-.2-.1-.2-.3v-.1c0-.1 0-.2.1-.2 0 0 .1-.1.1-.2h-1.6c-.1 0-.1 0-.1.1v1.1c0 .1 0 .1.1.1h1c.2 0 .3.1.4.2s.2.2.2.4c0 .5 0 1.4-.1 2.5 0 .6-.1 1-.1 1.4-.1.3-.1.6-.2.7-.1.2-.3.3-.6.4h-.5c-.1 0-.2 0-.3-.1s-.2-.2-.2-.3v-.3c.1-.1.1-.1.2-.1h.4c.1 0 .2 0 .3-.1.1-.1.2-.4.2-1s.1-1.4.1-2.7c0 0 0-.1-.1-.1h-.7c-.1 0-.1 0-.1.1-.2 1.9-.6 3.3-1.2 4.2-.1.1-.2.1-.3.1-.1 0-.2 0-.3-.1-.1-.1-.1-.2-.1-.3v-.1c0-.1 0-.2.1-.3.2-.3.4-.7.6-1.1s.3-.9.3-1.5c.1-.5.1-1 .2-1.5s.1-1 .1-1.6c0 0 0-.1-.1-.1H11c-.1 0-.2 0-.3-.1s-.1-.2-.1-.3 0-.2.1-.3.2-.3.3-.3h.8c.1 0 .1 0 .1-.1v-1c0-.1 0-.2.1-.3s.2-.1.3-.1.2 0 .3.1.1.2.1.3v1c0 .1 0 .1.1.1h.6c.2 0 .3.1.4.2s.2.2.2.4v.1c.2-.5.4-1.1.5-1.7 0-.1.1-.2.2-.3.1-.1.2-.1.3-.1h.1c.1 0 .2.1.3.2.1.1.1.1.1.2v.1c0 .2-.1.4-.1.6h1.7c.1 0 .2 0 .3.1s.1.2.1.3 0 .2-.1.3-.2.1-.3.1h-2c-.1 0-.1 0-.1.1-.1.3-.2.6-.4.8H17l.1.1c.1.1.1.1.1.2v.3c-.3.5-.7.9-1.1 1.3v.3c0 .1 0 .1.1.1h1zm4.5 2.5c-.2-.4-.5-1-.9-1.5-.5.9-1.1 1.7-1.9 2.3-.1-.2-.4-.6-.7-.8.6-.5 1.2-1.1 1.7-2 .1-.2.1-.6 0-.8-.5-.7-1-1.4-1.4-1.9l.6-.5c.2.2.4.5.5.7.4.5 1.2.4 1.3-.3.1-.5-.2-1-.7-1h-1.8v-.8h3.1l.6.2c-.2 1.3-.5 2.6-.9 3.6-.1.2-.1.5.1.7.4.6.7 1.1.9 1.5l-.5.6zm5.4-3.7c-.4 1-1 2-1.8 2.9.3.7.6 1.1 1 1.1.2 0 .4-.5.4-1.6.2.2.6.5.8.5-.2 1.7-.7 2.2-1.2 2.2-.6-.1-1-.3-1.4-.8-.3-.3-.7-.4-1.1-.1-.3.2-.6.5-1 .6l-.7-.7c.6-.3 1.1-.7 1.7-1.1.2-.2.3-.5.2-.8-.2-.8-.4-1.7-.5-2.8l-1.2.1-.1-.8 1.2-.1c-.1-.8-.1-1.7-.1-2.6h1c0 .6 0 1.2.1 1.7 0 .4.4.8.8.7l2.1-.2.1.8-2.1.3c-.4 0-.7.4-.7.9.1.6.2 1.2.3 1.7.6-.7 1-1.5 1.3-2.3l.9.4zm-.8-2c-.3-.4-.9-1-1.3-1.4l.6-.5c.5.4 1.1.9 1.4 1.3l-.7.6zM12.9 21.1c.3 0 .5.1.7.2.2.1.3.3.4.6l-.3.1c-.1-.2-.1-.3-.3-.4-.1-.1-.3-.1-.5-.1h-.1c-.3 0-.5.1-.6.2-.1.2-.2.4-.2.7v.9c0 .3.1.5.2.7.1.1.3.2.6.2s.5-.1.6-.2c.1-.2.2-.4.2-.7V23h-.8v-.4H14v.6c0 .4-.1.7-.3 1-.1.1-.2.2-.4.3-.1.1-.3.1-.5.1s-.4 0-.5-.1c-.2-.1-.3-.2-.4-.3-.2-.2-.3-.6-.3-1v-.9c0-.4.1-.7.3-1 .1-.1.2-.2.4-.3.2.1.4.1.6.1zm3.8 3.5l-.2-.7H15l-.2.7h-.4l1.3-3.5h.3l1.3 3.5h-.6zm-.4-1.1l-.6-1.6-.6 1.6h1.2zm4.2 1.1v-2.4l-1.1 2.4h-.3L18 22.2v2.4h-.4v-3.5h.4l1.3 2.8 1.3-2.8h.3v3.5h-.4zm1.5-3.1v1.2h1.7v.3H22v1.2h1.7v.4h-2.1v-3.5h2.1v.4H22z"/></svg>