<svg version="1.1" id="图层_1" xmlns="http://www.w3.org/2000/svg" x="0" y="0" viewBox="0 0 36 36" xml:space="preserve"><style>.st0{fill:#e70000}.st1{fill:#fff}</style><path class="st0" d="M0 0h36v36H0V0z"/><g id="apd6TB.tif"><path class="st1" d="M25.1 17c-.7-2.8-2-3.8-4.9-3.8h-5c-2.7 0-4.4 1.7-4.4 4.4v6.6c0 .6-.1.8-.7.8-1.4 0-1.4 0-1.4-1.4v-6.1c0-3.5 2.3-6.1 5.8-6.4 2.4-.2 4.8-.2 7.1 0 2.9.3 5.1 2.6 5.4 5.4V24c0 .6-.1.9-.8.8h-.5c-.5.1-.7-.1-.7-.7v-6.4c.2-.1.3-.4.1-.7z"/><path class="st1" d="M22.4 20.7v2c0 1.3-.8 2.2-2.1 2.2-1.6.1-3.1.1-4.7 0-1.3 0-2.1-.9-2.1-2.2v-4c0-1.3.8-2.2 2.1-2.2 1.6-.1 3.1-.1 4.7 0 1.3.1 2.1.9 2.1 2.2v2z"/><path class="st1" d="M11.7 20.7v-3.5c0-1.8 1.3-3.2 3.1-3.2 2.1-.1 4.2-.1 6.3 0 1.8 0 3.2 1.4 3.2 3.2v7.1c0 .4-.1.6-.5.6s-.6-.1-.6-.6v-6.6c0-1.9-.8-2.7-2.7-2.7h-5.4c-1.5 0-2.4.9-2.4 2.4V24c0 .4.2.8-.5.8s-.5-.5-.5-.8v-3.3zM25.1 17c.3.2.1.6.1.8v6.1c0 .8.3.8.9.8.6 0 .9-.1.9-.8v-6.6c0-.3 0-.5.1-.8.1 2.7 0 5.3.1 8 0 .3-.1.4-.4.4h-.1C25 25 25 25 25 23.4c.1-2.1.1-4.2.1-6.4z"/><path class="st0" d="M17.9 22.2H16c-.5 0-.7-.2-.7-.7.1-.8.1-1.6.2-2.4.1-.8.5-1.2 1.3-1.2h2.4c.8 0 1.2.4 1.3 1.2.1.8.1 1.6.2 2.4.1.5-.2.7-.7.7h-2.1zM20.6 22.7c.4 0 .7.2.8.7 0 .4-.2.7-.6.7-.4 0-.7-.2-.8-.6-.1-.6.2-.8.6-.8zM15.2 22.7c.4 0 .7.3.7.7 0 .4-.3.6-.7.6-.4 0-.7-.2-.7-.7 0-.4.3-.6.7-.6z"/></g></svg>