<svg version="1.1" id="图层_1" xmlns="http://www.w3.org/2000/svg" x="0" y="0" viewBox="0 0 36 36" xml:space="preserve"><style>.st1{enable-background:new}</style><path d="M0 0h36v36H0V0z" fill="#fff"/><g class="st1"><path d="M10.2 13.9c.1.1.2.2.2.3v.1c0 .1 0 .2-.1.3-.1.1-.2.2-.3.2h-.1c-.1 0-.2 0-.3-.1l-.9-.6c-.1-.1-.2-.1-.2-.2v-.1c0-.1 0-.1.1-.2s.2-.2.3-.2H9.2c.5.1.8.3 1 .5zm-.5 5.2c-.1.1-.1.2-.3.2h-.1c-.1 0-.2 0-.2-.1-.1-.1-.2-.2-.2-.3v-.1c0-.1 0-.2.1-.2.4-.8.8-1.6 1.1-2.4 0-.1.1-.2.2-.2h.1c.1 0 .1 0 .2.1s.2.2.2.3v.4c-.4.8-.8 1.5-1.1 2.3zm1-7.8c.1.1.2.2.2.3v.1c0 .1 0 .2-.1.3-.1.1-.2.2-.3.2-.1 0-.2 0-.3-.1l-.9-.6c-.1-.1-.2-.1-.2-.2s0-.2.1-.3c.1-.1.2-.2.3-.2h.1c.1 0 .2 0 .2.1.3 0 .6.2.9.4zm6.9 4.1c.1.1.1.2.1.3s0 .2-.1.3c-.1.1-.2.1-.3.1h-.4c-.1 0-.1 0-.1.1 0 .5-.1.9-.1 1.2 0 .1 0 .1.1.1h.4c.1 0 .2 0 .3.1s.1.2.1.3 0 .2-.1.3-.2.1-.3.1h-.5s-.1 0-.1.1c-.1.4-.2.7-.3.9l-.3.3c-.1.1-.3.1-.4.1h-.8c-.1 0-.2 0-.3-.1s-.1-.2-.2-.3v-.2s.1-.1.2-.1h.7c.2 0 .3 0 .4-.1.1-.1.1-.2.2-.4h-3.3-.1c0 .1-.1.2-.2.3-.1.1-.2.1-.3.1-.1 0-.2-.1-.3-.2-.1-.1-.1-.1-.1-.2v-.1c.1-.6.2-1.3.3-2 0-.1 0-.1-.1-.1h-.4c-.1 0-.2 0-.3-.1-.1-.1-.1-.2-.1-.3s0-.2.1-.3.2-.1.3-.1h.5s.1 0 .1-.1c.1-.4.1-.9.2-1.4 0-.2.1-.3.2-.4s.3-.2.4-.2h3.7c.2 0 .3.1.4.2s.2.2.2.4v1.4c0 .1 0 .1.1.1h.3c0-.2.1-.2.2-.1zm-.2-3.6c.1.1.1.2.1.3s0 .2-.1.3-.2.1-.3.1h-4.5s-.1 0-.1.1c-.2.4-.4.7-.7 1.1-.1.1-.2.2-.3.2h-.1c-.1 0-.2 0-.3-.1-.1-.1-.2-.2-.2-.3v-.1c0-.1 0-.2.1-.3.5-.6.9-1.3 1.2-2.2 0-.1.1-.2.2-.3.1 0 .2-.1.3-.1h.1c.1 0 .2.1.3.2V11c-.1.1-.1.3-.2.5H17c.2.2.3.2.4.3zm-3.6 4.4s0-.1 0 0l-1.1-.1c-.1 0-.1 0-.1.1v.4c0 .2 0 .3-.1.4s0 .3-.1.4c0 .1 0 .1.1.1h1.1c.1 0 .1 0 .1-.1s0-.3.1-.6 0-.4 0-.6zm.2-2c0-.1 0-.1 0 0l-1-.1s-.1 0-.1.1c0 .2-.1.6-.1 1 0 0 0 .1.1.1h1s.1 0 .1-.1v-1zm.5 3.2s0 .1 0 0l1.3.1c.1 0 .1 0 .1-.1 0-.4.1-.8.1-1.2 0-.1 0-.1-.1-.1h-1.2s-.1 0-.1.1c0 .5 0 .9-.1 1.2zm.2-2.2c0 .1.1.1 0 0l1.2.1s.1 0 .1-.1v-1s0-.1-.1-.1h-1.1c-.1 0-.1 0-.1.1.1.2.1.6 0 1zM24.8 10.6c.1-.1.2-.1.3-.1s.2 0 .3.1.1.2.1.3V15c0 .1 0 .1.1.1.5.5 1.1.9 1.7 1.2.1.1.2.1.2.3v.1c0 .1 0 .2-.1.3-.1.1-.2.2-.4.2h-.1c-.1 0-.2 0-.3-.1-.3-.2-.7-.5-1-.7v2.8c0 .1 0 .2-.1.3s-.2.1-.3.1-.2 0-.3-.1-.1-.2-.1-.3v-3.7-.1c-.5-.5-.9-1.1-1.3-1.7-.7 2.6-1.8 4.5-3.6 5.6-.1.1-.2.1-.3.1h-.1c-.1 0-.3-.1-.4-.2-.1-.1-.1-.1-.1-.2v-.2c0-.1.1-.1.1-.2 1-.6 1.7-1.4 2.4-2.5V16c-.4-.4-.9-.8-1.6-1.2h-.1c-.1.1-.1.2-.2.3-.1.1-.2.2-.3.2-.1 0-.2 0-.3-.1-.1-.1-.2-.2-.2-.3 0-.1 0-.2.1-.3.8-.9 1.5-2.1 1.9-3.6 0-.1.1-.2.2-.3.1-.1.2-.1.3-.1h.1c.1 0 .2.1.3.2 0 .1.1.1.1.2v.1c-.1.3-.2.5-.3.8H23.4l.2.1c.1 0 .2.1.2.2s.1.2.1.3c0 .2-.1.4-.1.5h.3c.1 0 .2.1.2.2l.6.9V11c-.2-.2-.2-.3-.1-.4zm-2.3 2.3l-1.7-.1s-.1 0-.1.1l-.6 1.2v.1c.6.4 1.1.7 1.5 1.1h.1c.4-.8.6-1.5.8-2.4z"/></g><g class="st1"><path d="M9.2 21.2c.2.1.3.1.4.3.2.2.3.6.3 1v.9c0 .4-.1.7-.3 1-.1.1-.2.2-.4.3-.1.1-.3.1-.5.1s-.4 0-.5-.1c-.2-.1-.3-.2-.4-.3-.2-.2-.3-.6-.3-1v-.9c0-.4.1-.7.3-1 .1-.1.2-.2.4-.3.1-.1.3-.1.5-.1s.4 0 .5.1zm-1 .5c-.2.1-.2.4-.2.7v.9c0 .3 0 .5.2.7.1.1.3.2.6.2s.5-.1.6-.2c.1-.2.2-.4.2-.7v-.9c0-.3-.1-.5-.2-.7-.1-.1-.3-.2-.6-.2s-.5 0-.6.2zM11.4 24.6l-1.1-3.5h.4l.9 2.6.9-2.6h.4l-1.1 3.5h-.4zM13.7 21.5v1.2h1.7v.3h-1.7v1.2h1.7v.4h-2.1v-3.5h2.1v.4h-1.7zM17.3 21.1c.4 0 .7.1.9.3.2.2.3.5.3.8 0 .3-.1.6-.3.8-.2.2-.4.2-.7.3l1 1.3H18l-1-1.3h-.5v1.3h-.4v-3.5h1.2zm-.8 1.7h.8c.3 0 .5-.1.6-.2.1-.1.2-.3.2-.5s-.1-.4-.2-.5c-.1-.1-.3-.2-.6-.2h-.8v1.4zM20.2 21.1c.3 0 .5.1.7.2.2.1.3.3.4.6l-.4.1c0-.2-.1-.3-.3-.4-.1-.1-.3-.1-.5-.1H20c-.3 0-.5.1-.6.2-.1.1-.2.2-.2.4s.1.3.2.4c.1.1.3.2.6.2.4 0 .7.1.9.2.2.2.3.4.3.7 0 .3-.1.6-.3.7-.2.2-.5.2-.9.2h-.1c-.3 0-.5-.1-.7-.2-.2-.1-.3-.3-.4-.6l.4-.1c0 .2.1.3.3.4.1.1.3.1.5.1h.1c.3 0 .5-.1.6-.2.1-.1.2-.2.2-.4s-.1-.3-.2-.4c-.1-.1-.3-.2-.6-.2-.4 0-.7-.1-.9-.2-.2-.2-.3-.4-.3-.7s.1-.6.3-.7c.3-.2.6-.2 1-.2zM22.3 21.5v1.2H24v.3h-1.7v1.2H24v.4h-2.1v-3.5H24v.4h-1.7zM26.8 24.6l-.2-.7h-1.5l-.2.7h-.4l1.3-3.5h.2l1.3 3.5h-.5zm-.4-1.1l-.6-1.6-.6 1.6h1.2z"/></g></svg>