<svg xmlns="http://www.w3.org/2000/svg" viewBox="0 0 36 36"><path d="M0 0h36v36H0V0z" fill="#6ba596"/><path d="M18 8.8c-3.9 0-7.8.5-7.8 3.9v9.2c0 1.9 1.5 3.4 3.4 3.4l-1.5 1.5v.5h2.2l1.9-1.9h3.7l1.9 1.9h1.9v-.5l-1.5-1.5c1.9 0 3.4-1.5 3.4-3.4v-9.2c.2-3.4-3.3-3.9-7.6-3.9zm-4.4 14.5c-.8 0-1.5-.6-1.5-1.5 0-.8.6-1.5 1.5-1.5.8 0 1.5.6 1.5 1.5s-.7 1.5-1.5 1.5zm3.4-6.8h-4.8v-3.9H17v3.9zm2 0v-3.9h4.8v3.9H19zm3.4 6.8c-.8 0-1.5-.6-1.5-1.5 0-.8.6-1.5 1.5-1.5.8 0 1.5.6 1.5 1.5-.1.9-.7 1.5-1.5 1.5z" fill="#fff"/></svg>