<?xml version="1.0" encoding="utf-8"?>
<!-- Generator: Adobe Illustrator 24.0.0, SVG Export Plug-In . SVG Version: 6.00 Build 0)  -->
<svg version="1.1" id="图层_1" xmlns="http://www.w3.org/2000/svg" xmlns:xlink="http://www.w3.org/1999/xlink" x="0px" y="0px"
	 viewBox="0 0 36 36" style="enable-background:new 0 0 36 36;" xml:space="preserve">
<style type="text/css">
	.st0{fill:#6BA596;}
	.st1{fill:#FFFFFF;}
</style>
<path class="st0" d="M0,0h36v36H0V0z"/>
<path class="st1" d="M18,8.8c-3.9,0-7.8,0.5-7.8,3.9v9.2c0,1.9,1.5,3.4,3.4,3.4l-1.5,1.5v0.5h2.2l1.9-1.9h3.7l1.9,1.9h1.9v-0.5
	l-1.5-1.5c1.9,0,3.4-1.5,3.4-3.4v-9.2C25.8,9.3,22.3,8.8,18,8.8z M13.6,23.3c-0.8,0-1.5-0.6-1.5-1.5c0-0.8,0.6-1.5,1.5-1.5
	c0.8,0,1.5,0.6,1.5,1.5C15.1,22.7,14.4,23.3,13.6,23.3z M17,16.5h-4.8v-3.9H17V16.5z M19,16.5v-3.9h4.8v3.9H19z M22.4,23.3
	c-0.8,0-1.5-0.6-1.5-1.5c0-0.8,0.6-1.5,1.5-1.5c0.8,0,1.5,0.6,1.5,1.5C23.8,22.7,23.2,23.3,22.4,23.3z"/>
</svg>
