<svg version="1.1" id="图层_1" xmlns="http://www.w3.org/2000/svg" x="0" y="0" viewBox="0 0 36 36" xml:space="preserve"><style>.st0{fill:#00a02c}.st1{fill:#42ba63}.st2{fill:#86d39a}</style><path class="st0" d="M0 0h36v36H0V0z"/><g id="D8DnSq.tif"><path class="st1" d="M14.6 27.2v-.1-4.4-.1h.1V27c0 .1 0 .1.1.1h2.1c.1 0 .1 0 .1-.1v-.1-5.2-.1s0-.1.1 0V27.3c-.9-.1-1.7-.1-2.5-.1z"/><path class="st2" d="M12.2 26.9v.3H9 12c.1 0 .1 0 .1-.1s0-.2.1-.2zM23.8 27.2V27v.1c0 .1 0 .1.1.1H27h-3.2z"/><path class="st1" d="M21.4 27.2H19 21.4z"/><path d="M21.4 27.2H19v-.1-5.4c0-.1 0-.1-.1-.1-.6-.1-1.1-.1-1.7 0h-.1v5.5c0 .1 0 .1-.1.1h-2.2c-.1 0-.1 0-.1-.1v-4.4-.1c-.7.5-1.3 1.2-1.7 1.9-.4.8-.6 1.6-.7 2.4v.2c0 .1 0 .1-.1.1h-3c0-1 .1-2 .5-3 .7-1.9 2-3.4 3.7-4.4.4-.3.8-.5 1.3-.6.1 0 .1-.1.1-.1v-2c0-.1 0-.1-.1-.1-1.8-.7-3.3-1.9-4.3-3.6-.6-1-1-2-1.1-3.1-.3-.6-.3-1-.3-1.4 0-.1 0-.1.1-.1h3c.1 0 .1 0 .1.1 0 1.9.8 3.4 2.3 4.5l.1.1v-.1V9c0-.1 0-.1.1-.1H17c.1 0 .1 0 .1.1v5.4c0 .1 0 .1.1.1.6.1 1.1.1 1.7 0 .1 0 .1-.1.1-.1V9c0-.1 0-.1.1-.1h2.2c.1 0 .1 0 .1.1v4.6h.1c1.2-.9 2-2.1 2.3-3.6.1-.3.1-.6.1-1 0-.1 0-.1.1-.1h3c.1 0 .1 0 .1.1 0 2.4-.9 4.5-2.7 6.2-.8.8-1.8 1.4-2.9 1.8-.1 0-.1.1-.1.1v2c0 .1 0 .1.1.1 1.6.6 2.8 1.6 3.8 2.9.8 1.1 1.4 2.4 1.6 3.7.1.5.1.9.1 1.4h-3c-.1 0-.1 0-.1-.1V27c-.1-1.9-.9-3.4-2.4-4.5v4.6c-.1 0-.1.1-.1.1z" fill="#fff"/><path class="st0" d="M19 18v.4c0 .1 0 .1-.1.1-.5 0-1-.1-1.5 0h-.3s-.1 0-.1-.1v-.9c0-.1 0-.1.1-.1.5 0 .9.1 1.4 0h.4c.1 0 .1 0 .1.1v.5z"/></g></svg>