<svg version="1.1" id="图层_1" xmlns="http://www.w3.org/2000/svg" x="0" y="0" viewBox="0 0 36 36" xml:space="preserve"><style>.st1{enable-background:new}</style><path d="M0 0h36v36H0V0z" fill="#fff"/><path d="M11.6 15.8v.8c-2.3.5-2.7.6-2.9.7 0-.2-.2-.6-.3-.8.2-.1.5-.3.8-.7.2-.2.5-.6.9-1.2-1.1.1-1.3.2-1.5.3 0-.2-.2-.6-.3-.8.2 0 .3-.3.6-.6.2-.3.9-1.6 1.3-2.8l.8.4c-.4 1-1 2-1.5 2.9l.7-.1c.3 0 .6-.2.7-.4.1-.2.2-.4.4-.7l.7.4c-.6 1-1.3 2-2 2.9l1.6-.3zm2.1 1.3c-.4.8-1 1.6-1.5 2.2-.2-.2-.5-.4-.7-.5.1-.1.2-.2.2-.3-1.1.3-2.2.6-3.1.8l-.2-.9c.8-.2 2-.4 3.2-.7l.1.7c.4-.5.8-1.1 1.1-1.6l.9.3zm2.4-.8c-.5 0-.9.4-.9.9v1.7c0 .4-.1.7-.4.8-.3.1-.7.2-1.4.1 0-.2-.2-.6-.3-.8h.9c.1 0 .2 0 .2-.1v-1.7c0-.5-.4-.9-.9-.9h-1.5v-.8h5.5v.8h-1.2zm-3.2-2.7H12v-.9c0-.5.4-.9.9-.9h1.5c-.1-.3-.3-.7-.4-1l.9-.2c.1.2.2.5.4.7.1.3.5.5.8.5h.5c.5 0 .9.4.9.9v.9h-.9v-1H13v1zm0 .1h3.7v.8h-3.7v-.8zm3.6 3.1c.5.6 1 1.5 1.2 2l-.8.4c-.2-.5-.7-1.4-1.2-2.1l.8-.3zM22.2 10.9c.2-.3.4-.4.7-.4.3 0 .6.1.8.4.5.6 1 1.1 1.7 1.6.6.5 1.3.9 1.9 1.3.1.1.2.1.2.3v.1c0 .1 0 .2-.1.2-.1.1-.2.2-.3.2H27c-.1 0-.2 0-.3-.1-.4-.2-.8-.5-1.1-.7v.2c0 .2-.1.3-.2.4-.1.1-.2.2-.4.2h-3.8c-.2 0-.3-.1-.4-.2-.1-.1-.2-.2-.2-.4-.3.3-.7.5-1.1.8-.1 0-.2.1-.2.1h-.1c-.1 0-.2-.1-.3-.2-.1-.1-.1-.2-.1-.2v-.1c0-.1.1-.2.2-.3.7-.4 1.3-.9 1.9-1.4.4-.7.9-1.3 1.3-1.8zm-1.8 8.8c-.1 0-.2 0-.3-.1s-.1-.3-.1-.4v-3c0-.2.1-.3.2-.4.1-.1.2-.2.4-.2h5c.2 0 .3.1.4.2.1.1.2.2.2.4v3c0 .1 0 .2-.1.3-.1.1-.2.1-.3.1h-.1c-.1 0-.2 0-.2-.1s-.1-.2-.1-.2h-4.2c0 .1 0 .2-.1.2s-.2.1-.2.1h-.5zm.4-6h4.5c-1-.7-1.7-1.4-2.3-2.2-.6.7-1.3 1.4-2.2 2.2zm4.4 3.8c0-.5-.4-1-1-1h-2.3c-.5 0-1 .4-1 1 0 .5.4 1 1 1h2.3c.5 0 1-.5 1-1z"/><g class="st1"><path d="M5.9 20.7c.1.1.3.3.3.5l-.3.1c0-.1-.1-.2-.2-.3-.1-.1-.2-.1-.4-.1s-.4.1-.5.2c-.1.1-.2.3-.2.5v.7c0 .2.1.4.2.6.1.1.3.2.5.2s.3 0 .4-.1c.1-.1.2-.2.2-.3l.3.1c-.1.2-.2.4-.3.5-.2.1-.3.2-.6.2-.1 0-.3 0-.4-.1-.1 0-.2-.1-.3-.2-.2-.2-.2-.4-.2-.8v-.7c0-.3.1-.6.2-.8.1-.1.2-.2.3-.2.1 0 .3-.1.4-.1.2 0 .4 0 .6.1zM8.1 21.5c.2.1.2.3.2.6v.5c0 .2-.1.4-.2.6-.2.1-.4.2-.6.2-.3 0-.5-.1-.6-.2-.2-.1-.2-.3-.2-.6v-.5c0-.2.1-.4.2-.6.2-.1.4-.2.6-.2.2 0 .4 0 .6.2zm-1.1.2c-.1.1-.1.2-.1.3v.5c0 .1 0 .3.1.3.1.1.2.1.4.1s.3 0 .4-.1c.2.1.2-.1.2-.2v-.5c0-.1 0-.3-.1-.3-.1-.1-.2-.1-.4-.1-.2-.1-.4-.1-.5 0zM11.7 21.5c.2.1.2.3.2.6v1.3h-.3v-1.3c0-.1 0-.3-.1-.3-.1-.1-.2-.1-.4-.1s-.3 0-.4.1c-.1.1-.1.2-.1.3v1.3h-.3v-1.3c0-.1 0-.3-.1-.3-.1-.1-.2-.1-.4-.1s-.3 0-.4.1c-.1.1-.1.2-.1.3v1.3h-.5v-2.1h.3v.1c.1-.1.3-.1.5-.1.3 0 .5.1.6.2l.1.1.1-.1c.2-.1.4-.2.6-.2.3 0 .6 0 .7.2zM14 21.5c.2.1.2.3.2.6v.5c0 .2-.1.4-.2.6-.2.1-.4.2-.6.2-.2 0-.4 0-.6-.1v.8h-.3v-2.8h.3v.1c.1-.1.3-.1.6-.1.2 0 .5 0 .6.2zm-1 .2c-.1.1-.1.2-.1.3v.5c0 .1 0 .3.1.3.1.1.2.1.4.1s.3 0 .4-.1c.1-.1.1-.2.1-.3V22c0-.1 0-.3-.1-.3-.1-.1-.2-.1-.4-.1s-.4 0-.4.1zM15.6 21.6c-.2 0-.3 0-.4.1-.1.1-.1.2-.1.3v1.3h-.3v-2.1h.2v.1c.1-.1.3-.1.5-.1h.2v.3h-.1zM17.6 21.5c.2.1.2.3.2.6v.4h-1.4v.1c0 .1 0 .3.1.3.1.1.2.1.4.1.1 0 .3 0 .3-.1.1 0 .1-.1.2-.2l.3.1c-.1.2-.2.3-.3.3-.1.1-.3.1-.5.1-.3 0-.5-.1-.6-.2-.2-.1-.2-.3-.2-.6v-.5c0-.2.1-.4.2-.6.2-.1.4-.2.6-.2.3.2.5.2.7.4zm-1.1.2c-.1.1-.1.2-.1.3v.1h1.1V22c0-.1 0-.3-.1-.3-.1-.1-.2-.1-.4-.1-.3 0-.4 0-.5.1zM18.6 21.4c.1-.1.3-.1.5-.1.3 0 .5.1.6.2.2.1.2.3.2.6v1.3h-.3v-1.3c0-.1 0-.3-.1-.3-.1-.1-.2-.1-.4-.1s-.3 0-.4.1c-.1.1-.1.2-.1.3v1.3h-.3v-2.8h.3v.8zM21.9 21.5c.2.1.2.3.2.6v.4h-1.4v.1c0 .1 0 .3.1.3.1.1.2.1.4.1.1 0 .3 0 .3-.1.1 0 .1-.1.2-.2l.3.1c-.1.2-.2.3-.3.3-.1.1-.3.1-.5.1-.3 0-.5-.1-.6-.2-.2-.1-.2-.3-.2-.6v-.5c0-.2.1-.4.2-.6.2-.1.4-.2.6-.2.4.2.6.2.7.4zm-1 .2c-.1.1-.1.2-.1.3v.1h1.1V22c0-.1 0-.3-.1-.3-.1-.1-.2-.1-.4-.1-.3 0-.4 0-.5.1zM24.2 21.5c.2.1.2.3.2.6v1.3h-.3v-1.3c0-.1 0-.3-.1-.3-.1-.1-.2-.1-.4-.1s-.3 0-.4.1c-.2 0-.2.1-.2.3v1.3h-.3v-2.1h.3v.1c.1-.1.3-.1.5-.1.3 0 .5 0 .7.2zM25.8 21.3c.2 0 .4 0 .5.1l.3.3-.3.1c0-.1-.1-.1-.2-.2-.1 0-.2-.1-.3-.1-.2 0-.4 0-.4.1-.1 0-.1.1-.1.2s0 .1.1.2c.1 0 .2.1.4.1.3 0 .5 0 .6.1l.2.2c0 .1.1.2.1.3 0 .1 0 .2-.1.3l-.2.2c-.1.1-.4.1-.6.1-.2 0-.4 0-.5-.1l-.3-.3.3-.1c0 .1.1.1.2.2.1 0 .2.1.3.1.2 0 .4 0 .4-.1.1 0 .1-.1.1-.2s0-.1-.1-.2c-.1 0-.2-.1-.4-.1-.3 0-.5 0-.6-.1l-.2-.2c0-.1-.1-.2-.1-.3 0-.1 0-.2.1-.3l.2-.2c0-.1.3-.1.6-.1zM27.5 20.8c0 .1-.1.2-.2.2s-.2-.1-.2-.2.1-.2.2-.2.2.1.2.2zm-.4 2.6v-2.1h.3v2.1h-.3zM28.7 23.4l-.8-2.1h.3l.6 1.5.6-1.5h.3l-.8 2.1h-.2zM31.4 21.5c.2.1.2.3.2.6v.4h-1.4v.1c0 .1 0 .3.1.3.1.1.2.1.4.1.1 0 .3 0 .3-.1.1 0 .1-.1.2-.2l.3.1c-.1.2-.2.3-.3.3-.1.1-.3.1-.5.1-.3 0-.5-.1-.6-.2-.2-.1-.2-.3-.2-.6v-.5c0-.2.1-.4.2-.6.2-.1.4-.2.6-.2.3.2.6.2.7.4zm-1 .2c-.1.1-.1.2-.1.3v.1h1.1V22c0-.1 0-.3-.1-.3-.1-.1-.2-.1-.4-.1-.3 0-.5 0-.5.1z"/></g></svg>