<svg xmlns="http://www.w3.org/2000/svg" viewBox="0 0 36 36"><path d="M0 0h36v36H0V0z" fill="#fff"/><path d="M15.6 11.1c.4 0 .8.4.8.8 0 4.3 0 6.9.6 6.9.1 0 .2-.7.2-1.5.1.2.4.5.6.7-.1 1.3-.3 1.8-.9 1.8-1.3 0-1.4-2.3-1.4-7 0-.4-.3-.8-.8-.8h-3.4c-.4 0-.8.3-.8.8V14c0 1.7-.2 4.3-1.3 5.9-.2-.2-.6-.5-.8-.6 1.1-1.5 1.2-3.7 1.2-5.3v-2.1c0-.4.3-.8.8-.8h5.2zm-.8 1.8c-.3.8-.6 1.6-.9 2.3-.1.3-.1.6.1.8.6.8 1 1.5 1.4 2.1l-.9.5c-.2-.3-.4-.7-.7-1.2-.3-.4-.9-.5-1.3-.1-.4.5-.9 1-1.4 1.4l-.7-.7c.7-.5 1.3-1.1 1.8-1.9.2-.3.2-.6 0-.9-.5-.6-1-1.2-1.4-1.8l.8-.4c.2.3.5.5.7.8.4.4 1.1.3 1.3-.2.1-.3.3-.7.4-1l.8.3zm4.3 2c0 .1-.1.2-.2.2s-.2.1-.3 0-.2-.1-.2-.2v-.3c.1-.5.2-1.2.3-1.9 0-.1 0-.2.1-.2s.2-.1.2-.1c.1 0 .2.1.2.1l.1.2c0 .9-.1 1.5-.2 2.2zm2.3-1.9v.3c0 .1-.1.2-.2.2H21l-.2-.2c-.1-.4-.2-.7-.4-1v7c0 .1 0 .2-.1.3s-.2.1-.3.1-.2 0-.3-.1-.1-.2-.1-.3V11c0-.1 0-.2.1-.3s.2-.1.3-.1.2 0 .3.1.1.2.1.3v1.2h.4l.3.3c.2.1.2.3.3.5zm3.3.6s.1.1 0 0l2.5.1c.1 0 .2 0 .2.1s.1.1.1.2 0 .2-.1.2-.1.1-.2.1h-5.8c-.1 0-.2 0-.2-.1s-.1-.1-.1-.2 0-.2.1-.2.2-.1.2-.1h2.3c.1 0 .1 0 .1-.1v-.4c0-.1 0-.1-.1-.1H22c-.1 0-.2 0-.2-.1s-.1-.1-.1-.2 0-.2.1-.2.1-.1.2-.1h1.8c.1 0 .1 0 .1-.1V12c0-.1 0-.1-.1-.1h-2c-.1 0-.2 0-.2-.1s-.1-.1-.1-.2 0-.2.1-.2.1-.1.2-.1h2c.1 0 .1 0 .1-.1V11c0-.1 0-.2.1-.3s.2-.1.3-.1.2 0 .3.1.1.2.1.3v.2c0 .1 0 .1.1.1h2.1c.1 0 .2 0 .2.1s.1.1.1.2 0 .2-.1.2-.1.1-.2.1h-2.1c-.1 0-.1 0-.1.1v.4c0 .1 0 .1.1.1h1.9c.1 0 .2 0 .2.1s.1.1.1.2 0 .2-.1.2-.1.1-.2.1h-1.9c-.1 0-.1 0-.1.1v.4zm1.6 1.2c.2 0 .3.1.4.2s.2.2.2.4v3.3c0 .2 0 .4-.1.5l-.3.3c-.2.1-.5.1-1 .1-.1 0-.2 0-.3-.1-.1-.1-.2-.2-.2-.3v-.3c.1-.1.1-.1.2-.1h.8v-.6c0-.1 0-.1-.1-.1h-3.2c-.1 0-.1 0-.1.1v1c0 .1 0 .2-.1.3s-.2.1-.3.1-.2 0-.3-.1-.1-.2-.1-.3v-3.8c0-.2.1-.3.2-.4s.2-.2.4-.2h3.9zm-.4.8s0-.1 0 0l-3.2-.1c-.1 0-.1 0-.1.1v.5s0 .1.1.1h3.2s.1 0 .1-.1v-.5zm-3.3 1.8c0 .1.1.1 0 0l3.2.1s.1 0 .1-.1v-.5c0-.1 0-.1-.1-.1h-3.2c-.1 0-.1 0-.1.1v.5zM3.7 21.3c.2.1.3.3.4.6l-.4.1c-.1-.2-.1-.3-.3-.4-.1-.1-.3-.1-.5-.1-.3 0-.5.1-.6.2-.1.2-.2.4-.2.7v.9c0 .3.1.5.2.7.1.1.3.2.6.2.2 0 .4 0 .5-.1.1-.1.2-.2.3-.4l.4.1c-.1.2-.2.4-.4.6-.2.1-.4.2-.7.2-.2 0-.4 0-.5-.1-.2-.1-.3-.2-.4-.3-.2-.2-.3-.6-.3-1v-.9c0-.4.1-.7.3-1 .1-.1.2-.2.4-.3.1-.1.3-.1.5-.1.2.2.5.2.7.4zm.9 3.3v-3.5H5v3.5h-.4zm2.2-3.1v3.1h-.4v-3.1h-.8v-.4h2.1v.4h-.9zm1.4 3.1v-3.5h.4v3.5h-.4zm1.5-3.1v1.2h1.7v.3H9.7v1.2h1.7v.4H9.3v-3.5h2.1v.4H9.7zm3.5-.4c.3 0 .5.1.7.2.2.1.3.3.4.6l-.3.1c-.1-.2-.1-.3-.3-.4-.1-.1-.3-.1-.5-.1h-.1c-.3 0-.5.1-.6.2-.1.1-.2.2-.2.4s.1.3.2.4c.1.1.4.2.6.2.4 0 .7.1.9.2.2.2.3.4.3.7 0 .3-.1.6-.3.7-.2.2-.5.2-.9.2H13c-.3 0-.5-.1-.7-.2-.2-.1-.3-.3-.4-.6l.4-.1c.1.2.1.3.3.4.1.1.3.1.5.1h.1c.3 0 .5-.1.6-.2.1-.1.2-.2.2-.4s-.1-.3-.2-.4c-.1-.1-.3-.2-.6-.2-.4 0-.7-.1-.9-.2-.2-.1-.3-.3-.3-.7s.1-.6.3-.7c.2-.2.5-.2.9-.2zm4.4 0c.3 0 .5.1.7.2.2.1.3.3.4.6l-.3.1c0-.2-.1-.3-.3-.4-.1-.1-.3-.1-.5-.1h-.1c-.3 0-.5.1-.6.2-.1.1-.2.2-.2.4s.1.3.2.4c.1.1.4.2.6.2.4 0 .7.1.9.2.2.2.3.4.3.7 0 .3-.1.6-.3.7-.2.2-.5.2-.9.2h-.1c-.3 0-.5-.1-.7-.2-.2-.1-.3-.3-.4-.6l.4-.1c0 .2.1.3.3.4.1.1.3.1.5.1h.1c.3 0 .5-.1.6-.2.1-.1.2-.2.2-.4s-.1-.3-.2-.4c-.2 0-.4-.1-.6-.1-.4 0-.7-.1-.9-.2-.2-.2-.3-.4-.3-.7s.1-.6.3-.7c.2-.3.5-.3.9-.3zm2.7.4v3.1h-.4v-3.1H19v-.4h2.1v.4h-.8zm2.6 1.8v1.3h-.4v-1.3l-1.1-2.2h.4l.9 1.7.9-1.7h.4l-1.1 2.2zm3.6.9v.4h-2.1v-3.5h.4v3.1h1.7zm1-2.7v1.2h1.7v.3h-1.7v1.2h1.7v.4h-2.1v-3.5h2.1v.4h-1.7zm3.5-.4c.3 0 .5.1.7.2.2.1.3.3.4.6l-.4.1c-.1-.2-.1-.3-.3-.4-.1-.1-.3-.1-.5-.1h-.1c-.3 0-.5.1-.6.2-.1.1-.2.2-.2.4s.1.3.2.4c.1.1.4.2.6.2.4 0 .7.1.9.2.2.2.3.4.3.7 0 .3-.1.6-.3.7-.2.2-.5.2-.9.2h-.1c-.3 0-.5-.1-.7-.2-.2-.1-.3-.3-.4-.6l.4-.1c.1.2.1.3.3.4.1.1.3.1.5.1h.1c.3 0 .5-.1.6-.2.1-.1.2-.2.2-.4s-.1-.3-.2-.4c-.1-.1-.3-.2-.6-.2-.4 0-.7-.1-.9-.2-.2-.2-.3-.4-.3-.7s.1-.6.3-.7c.3-.2.6-.2 1-.2z"/></svg>