<svg xmlns="http://www.w3.org/2000/svg" xmlns:xlink="http://www.w3.org/1999/xlink" width="18" height="18" x="0" y="0" enable-background="new 0 0 18 18" version="1.1" viewBox="0 0 18 18" xml:space="preserve"><path fill="#C51835" d="M17.5,7.8C17.5,7.8,17.5,7.8,17.5,7.8l-7.3-7.3C9.9,0.2,9.4,0,9,0C8.6,0,8.1,0.2,7.8,0.5L0.5,7.8c0,0,0,0,0,0	c-0.6,0.6-0.6,1.7,0,2.3c0.3,0.3,0.7,0.5,1.1,0.5c0,0,0,0,0.1,0h0.3v5.4c0,1.1,0.9,1.9,1.9,1.9c3.4,0,6.8,0,10.3,0	c0.1,0,0.8,0,1.4-0.6c0.4-0.4,0.6-0.8,0.6-1.4v-5.4h0.3c0.4,0,0.9-0.2,1.2-0.5C18.2,9.5,18.2,8.5,17.5,7.8z M16.8,9.4	c-0.1,0.1-0.3,0.2-0.4,0.2h-0.8c-0.3,0-0.5,0.2-0.5,0.5v5.9c0,0.5-0.4,0.9-0.9,0.9h-2.3c-1.9,0-3.7,0-5.6,0H3.9	C3.4,17,3,16.6,3,16.1v-5.9c0-0.3-0.2-0.5-0.5-0.5H1.7c0,0,0,0,0,0c-0.2,0-0.3-0.1-0.4-0.2C1,9.2,1,8.8,1.2,8.6l0,0l0,0l7.3-7.3	C8.7,1.1,8.8,1.1,9,1.1s0.3,0.1,0.4,0.2l7.3,7.3l0,0C17,8.8,17,9.2,16.8,9.4z" class="st0"/></svg>