<?xml version="1.0" encoding="utf-8"?>
<!-- Generator: Adobe Illustrator 24.0.0, SVG Export Plug-In . SVG Version: 6.00 Build 0)  -->
<svg version="1.1" id="图层_1" xmlns="http://www.w3.org/2000/svg" xmlns:xlink="http://www.w3.org/1999/xlink" x="0px" y="0px"
	 viewBox="0 0 512 512" style="enable-background:new 0 0 512 512;" xml:space="preserve">
<path d="M435.2,86.3h-59.7c-21.9,0-42.8,9.3-57.4,25.8l-11.4,11.3c-1.2-9.3-5.4-17.9-12-24.6c-1.9-1.9-4.1-3.6-6.3-5.1
	c9.9-9.7,13-24.4,7.8-37.3C290.9,43.4,278.4,35,264.5,35s-26.4,8.4-31.6,21.3c-5.2,12.9-2.2,27.6,7.8,37.3
	c-11.8,7.9-18.8,21.2-18.8,35.4V207l-42.7,42.1v-9.2c0-11.3-4.5-22.2-12.5-30.2c-1.9-1.9-4.1-3.6-6.3-5.1c9.9-9.7,13-24.4,7.8-37.3
	c-5.2-12.9-17.7-21.3-31.6-21.3s-26.4,8.4-31.6,21.3c-5.2,12.9-2.2,27.6,7.8,37.3c-11.8,7.9-18.8,21.2-18.8,35.4v85.3H76.8
	C34.4,325.2,0,359.6,0,402s34.4,76.8,76.8,76.8h59.7c21.9,0,42.8-9.3,57.4-25.8l216-213.2h25.3c42.4,0,76.8-34.4,76.8-76.8
	S477.6,86.3,435.2,86.3z M247.5,69.2c0-9.4,7.6-17.1,17.1-17.1s17.1,7.6,17.1,17.1s-7.6,17.1-17.1,17.1
	C255.1,86.3,247.5,78.6,247.5,69.2z M238.9,128.9c0-14.1,11.5-25.6,25.6-25.6c14.1,0,25.6,11.5,25.6,25.6v10.7l-51.2,50.5V128.9z
	 M119.5,180.1c0-9.4,7.6-17.1,17.1-17.1s17.1,7.6,17.1,17.1s-7.6,17.1-17.1,17.1C127.1,197.2,119.5,189.6,119.5,180.1z M136.5,214.3
	c6.8,0,13.3,2.7,18.1,7.5c4.8,4.8,7.5,11.3,7.5,18.1v26.1l-51.2,50.5v-76.6C110.9,225.7,122.4,214.3,136.5,214.3z M435.2,222.8
	h-28.8c-2.2,0-4.4,0.9-6,2.5l-219,216.1c-11.3,13-27.7,20.4-44.9,20.4H76.8c-33,0-59.7-26.7-59.7-59.7s26.7-59.7,59.7-59.7h28.8
	c0.1,0,0.1,0,0.2,0c1.1,0,2.1-0.2,3.1-0.6c0.7-0.3,1.4-0.8,2-1.3c0.3-0.2,0.5-0.3,0.7-0.5l0.1-0.1l193.1-190.5l0.1-0.1l25.8-25.4
	c11.3-13,27.7-20.4,45-20.4h59.7c33,0,59.7,26.7,59.7,59.7S468.2,222.8,435.2,222.8z"/>
</svg>
