<svg version="1.1" id="图层_1" xmlns="http://www.w3.org/2000/svg" x="0" y="0" viewBox="0 0 36 36" xml:space="preserve"><style>.st1{enable-background:new}</style><path d="M0 0h36v36H0V0z" fill="#fff"/><path d="M11.6 17.6c0 .1 0 .1 0 0 0 .1 0 .1 0 0h.6c.1 0 .1 0 .2.1s.1.2.2.3v.1c0 .1 0 .2-.1.3-.1.1-.2.2-.3.2-.9.2-1.9.5-3.1.7H9c-.1 0-.2 0-.2-.1-.1-.1-.2-.2-.2-.3v-.1c0-.1 0-.2.1-.3.1-.1.2-.2.3-.2.2 0 .8-.2 1.8-.4.2-1 .4-2.1.5-3.2 0-.1.1-.2.2-.3.1-.1.2-.1.2-.1h.1c.1 0 .2.1.3.2.1.1.1.2.1.3v.1c-.3 1-.5 2-.6 2.7zM12 13c.1 0 .2 0 .3.1s.1.2.1.3 0 .2-.1.3-.2.1-.3.1H9c-.1 0-.2 0-.3-.1s-.1-.2-.1-.3 0-.2.1-.3.2-.1.3-.1h1s.1 0 .1-.1v-1.3c0-.1 0-.2.1-.3s.2-.1.3-.1.2 0 .3.1.1.2.1.3V13s0 .1.1.1h1zm-1.9 4.3c0 .1 0 .2-.1.3s-.2.1-.3.2c-.1 0-.2 0-.3-.1s-.1-.2-.1-.3c0-.8-.1-1.7-.3-2.6 0-.1 0-.2.1-.3l.2-.2c.1 0 .2 0 .3.1l.2.2c.2 1.2.3 2.1.3 2.7zm7.4-4.1c.1.1.1.2.1.3s0 .2-.1.3-.2.2-.4.2h-1.9c-.1 0-.1 0-.1.1v1.7s0 .1.1.1h1.3c.2 0 .3.1.4.2.1.1.2.2.2.4v3.4c0 .1 0 .2-.1.3s-.2.1-.3.1h-.1c-.1 0-.2 0-.3-.1s-.1-.2-.1-.3h-2.7c0 .1 0 .2-.1.3s-.2.1-.3.1c-.1 0-.2 0-.3-.1s-.1-.2-.1-.3v-3.4c0-.2.1-.3.2-.4.1-.1.2-.2.4-.2h1s.1 0 .1-.1v-4.2c0-.1 0-.2.1-.3s.2-.1.3-.1.2 0 .3.1.1.2.1.3V13c0 .1 0 .1.1.1h1.9c.1 0 .2 0 .3.1zM16.2 19s.1-.1 0 0l.1-2.2c0-.1 0-.1-.1-.1h-2.6c-.1 0-.1 0-.1.1v2.1c0 .1 0 .1.1.1h2.6zm9.1-6.4c0 .1 0 .1 0 0l1.7.1c.1 0 .2 0 .3.1s.1.2.1.3 0 .2-.1.3-.2.1-.3.1h-8c-.1 0-.2 0-.3-.1s-.1-.2-.1-.3 0-.2.1-.3.2-.1.3-.1h1.8c-.1-.2-.3-.5-.5-.8 0-.1-.1-.1-.1-.2v-.1c0-.1.1-.2.2-.2h.4c.1 0 .2.1.3.2.2.2.3.4.4.6 0 .1.1.1.1.2v.1c0 .1-.1.2-.3.2H24c.1 0 .1 0 .1-.1.2-.3.4-.7.6-1l.3-.3h.4c.1 0 .2.1.3.2v.1c0 .1 0 .1-.1.2 0 .3-.1.6-.3.8zm-3 1.7c.2 0 .3.1.4.2s.2.2.2.4v4.5c0 .2 0 .4-.1.5l-.3.3c-.2.1-.5.1-1 .2-.1 0-.2 0-.3-.1-.1-.2-.2-.3-.2-.4v-.3c0-.1.1-.1.2-.1h.7v-1.2s0-.1-.1-.1H20s-.1 0-.1.1v1.6c0 .1 0 .2-.1.3s-.2.1-.3.1-.2 0-.3-.1-.1-.2-.1-.3v-5c0-.2.1-.3.2-.4s.2-.2.4-.2h2.6zm-.3.9c0-.1 0-.1 0 0l-1.9-.1s-.1 0-.1.1v.7s0 .1.1.1h1.8c.1 0 .1 0 .1-.1v-.7zm-2 2.2c0 .1 0 .1 0 0l1.9.1c.1 0 .1 0 .1-.1v-.7c0-.1 0-.1-.1-.1h-1.8s-.1 0-.1.1v.7zm4.1-2.9c.1-.1.2-.1.3-.1s.2 0 .3.1.1.2.1.3V18c0 .1 0 .2-.1.3s-.2.1-.3.1-.2 0-.3-.1-.1-.2-.1-.3v-3.2c-.1-.1 0-.2.1-.3zm1.8 4.7v-4.6c0-.1 0-.2.1-.3s.2-.1.3-.1.2 0 .3.1.1.2.1.3v4.7c0 .3 0 .4-.1.6s-.2.2-.4.3c-.2.1-.6.2-1.1.2-.1 0-.2 0-.4-.1-.1-.1-.2-.2-.2-.3v-.3c0-.1.1-.1.2-.1h.9c.1 0 .3-.3.3-.4zM10 24.2V23H8.7v1.2h-.3v-2.8h.3v1.2H10v-1.2h.3v2.8H10zm1.2-1.4c.1 0 .2 0 .3.1.1.1.1.2.1.3v.2c0 .1 0 .1-.1.1l-.1.1h-.2c-.1 0-.1 0-.2.1 0 0-.1.1-.1.2v.1h.7v.2h-.9v-.3c0-.1 0-.3.1-.4.1-.1.2-.1.3-.1.1 0 .1 0 .2-.1 0 0 .1-.1.1-.2V23s-.1-.1-.2-.1-.2.1-.2.2h-.2c0-.1.1-.2.1-.2.1-.1.2-.1.3-.1z"/><path d="M11.2 22.8c.1 0 .2 0 .3.1.1.1.1.2.1.3v.2c0 .1 0 .1-.1.1l-.1.1h-.2c-.1 0-.1 0-.2.1 0 0-.1.1-.1.2v.1h.7v.2h-.9v-.3c0-.1 0-.3.1-.4.1-.1.2-.1.3-.1.1 0 .1 0 .2-.1 0 0 .1-.1.1-.2V23s-.1-.1-.2-.1h0c-.1 0-.2.1-.2.2h-.2c0-.1.1-.2.1-.2.1-.1.2-.1.3-.1h0z" fill="none" stroke="#000" stroke-width=".05" stroke-miterlimit="10"/><path d="M13.4 21.5c.1 0 .2.1.3.2.2.2.2.4.2.8v.7c0 .3-.1.6-.2.8-.1.1-.2.2-.3.2-.1 0-.3.1-.4.1-.1 0-.3 0-.4-.1-.1 0-.2-.1-.3-.2-.2-.2-.2-.4-.2-.8v-.7c0-.3.1-.6.2-.8.1-.1.2-.2.3-.2.1 0 .3-.1.4-.1.2 0 .3 0 .4.1zm-.8.4c-.1.1-.2.3-.2.5v.7c0 .2.1.4.2.6.1.1.3.2.5.2s.4-.1.5-.2c.1-.1.2-.3.2-.6v-.7c0-.2-.1-.4-.2-.5-.1-.1-.3-.2-.5-.2s-.4.1-.5.2zm4-.5c.3 0 .5.1.7.2.2.2.3.4.3.6 0 .3-.1.5-.3.6-.2.1-.4.2-.7.2H16v1.1h-.3v-2.8h.9zm-.7 1.4h.6c.2 0 .4 0 .5-.1.1-.1.2-.2.2-.4s-.1-.3-.2-.4c-.1-.1-.3-.1-.5-.1h-.6v1zm3.7 1.1v.3H18v-2.8h.3v2.5h1.3zm2.2.3l-.2-.5h-1.2l-.2.5h-.3l1-2.8h.2l1 2.8h-.3zm-.3-.8l-.5-1.3-.5 1.3h1zm1.2.5h1.5v.3h-1.8v-.4l1.5-2h-1.5v-.3h1.8v.4l-1.5 2zm3.6.3l-.2-.5H25l-.2.5h-.3l1-2.8h.2l1 2.8h-.4zm-.3-.8l-.5-1.3-.5 1.3h1z"/></svg>