<svg version="1.1" id="图层_1" xmlns="http://www.w3.org/2000/svg" x="0" y="0" viewBox="0 0 36 36" xml:space="preserve"><style></style><path d="M0 0h36v36H0V0z" fill="#fff"/><path d="M17.4 16.5c.1.1.1.2.1.3s0 .2-.1.3-.2.1-.3.1H14c.6.8 1.6 1.3 3.2 1.5.1 0 .2.1.2.2v.3l-.3.3c-.1.1-.2.1-.3.1h-.1c-.9-.1-1.6-.4-2.2-.8-.6-.4-1-.9-1.4-1.5-.3.6-.7 1-1.2 1.4-.6.4-1.4.6-2.4.8h-.1c-.1 0-.2 0-.3-.1l-.3-.3c-.1-.1-.1-.2 0-.3 0-.1.1-.2.2-.2.8-.1 1.5-.3 2-.6s.8-.5 1.1-.9H8.9c-.1 0-.2 0-.3-.1s-.1-.2-.1-.3 0-.2.1-.3.2-.1.3-.1h3.3s.1 0 .1-.1c0-.2.1-.4.1-.7 0-.1 0-.1-.1-.1H9c-.1 0-.2 0-.3-.1s-.1-.2-.1-.3 0-.2.1-.3.2-.1.3-.1h3.4c.1 0 .1 0 .1-.1V14s0-.1-.1-.1H9.9c-.1 0-.2 0-.3-.1s-.1-.2-.1-.3 0-.2.1-.3.2-.1.3-.1h2.5c.1 0 .1 0 .1-.1v-.5c0-.1 0-.1-.1-.1h-3c-.1 0-.2 0-.3-.1s-.1 0-.1-.1 0-.2.1-.3.2-.1.3-.1h1.4c-.1-.2-.2-.4-.4-.6-.1-.1-.1-.2-.1-.3s.1-.2.2-.2h.3c.1 0 .2.1.3.2.2.2.3.4.4.6v.2c0 .1-.1.1-.1.2h2.7c-.1 0-.1-.1-.1-.1v-.2c.1-.2.3-.4.4-.5l.3-.3h.4c.1 0 .2.1.3.2v.1c0 .1 0 .1-.1.2-.2.2-.3.4-.5.6h1.6c.1 0 .2 0 .3.1s.1.2.1.3 0 .2-.1.3-.2.1-.3.1h-3c-.1 0-.1 0-.1.1v.5c0 .1 0 .1.1.1h2.7c.1 0 .2 0 .3.1s.1.2.1.3 0 .2-.1.3-.2.1-.3.1h-2.7c-.1 0-.1 0-.1.1v.5s0 .1.1.1H17c.1 0 .2 0 .3.1s.1.2.1.3 0 .2-.1.3-.2.1-.3.1h-3.5s-.1 0-.1.1c0 .3-.1.5-.1.7 0 0 0 .1.1.1h3.8c0-.2.1-.1.2-.1zm8.6-.1c.1-.1.2-.1.3-.1.1 0 .2 0 .3.1.1.1.1.2.1.3s-.1.2-.2.3c-.5.3-1.1.7-1.7 1 .6.3 1.3.5 2.1.6.1 0 .2.1.2.2v.3l-.3.3c-.1 0-.2.1-.3.1h-.1c-1.9-.4-3.2-1.3-4-2.7l-.1-.1h-1.2s-.1 0-.1.1v1.6s0 .1.1.1.4 0 .9-.1c.4 0 .7-.1 1-.1.1 0 .2 0 .3.1.1.1.1.2.1.3s0 .2-.1.3c-.1-.1-.2 0-.3 0-1.4.1-2.5.3-3.4.3-.1 0-.2 0-.3-.1-.1-.1-.2-.2-.2-.3v-.1c0-.1 0-.2.1-.2.1-.1.2-.1.3-.1h.6s.1 0 .1-.1v-4.9c-.3.1-.5.3-.7.4h-.4c-.1 0-.2-.1-.3-.2-.1-.1-.1-.1-.1-.2v-.1c0-.1.1-.2.2-.2.7-.3 1.3-.7 2-1.2.6-.4 1.1-.8 1.4-1.3.2-.2.5-.4.8-.4s.6.1.8.3c.5.5 1 .9 1.7 1.3.6.4 1.2.7 1.9 1 .1 0 .2.1.2.2v.1c0 .1 0 .1-.1.2s-.2.2-.3.2h-.2c-.1 0-.2 0-.2-.1-.2-.1-.4-.2-.7-.4l-.2 3.3c-.1 0-.1 0 0 0-.1 0-.1 0 0 0-.1 0-.1 0 0 0zm-2.6-3.5c0 .1.1.1 0 0l1.8.1c-1-.6-1.7-1.2-2.3-1.8h-.1c-.5.6-1.2 1.2-2.2 1.8h1.7s.1 0 .1-.1v-.4c0-.1 0-.2.1-.3s.2-.1.3-.1.2 0 .3.1.1.2.1.3v.4zm-2.3.8s-.1 0 0 0l-.1.6s0 .1.1.1h3.8s.1 0 .1-.1v-.5c0-.1 0-.1-.1-.1h-3.8zm0 1.4s-.1 0 0 0l-.1.7c0 .1 0 .1.1.1h3.8s.1 0 .1-.1v-.6s0-.1-.1-.1h-3.8zm4.5 1.5h-2.1c.2.3.4.5.7.7h.1c.4-.1.8-.4 1.3-.7zm-12.8 4.9v1.2h1.7v.3h-1.7v1.6h-.4v-3.5h2.1v.4h-1.7zm3.9-.3c.2.1.3.1.4.3.2.2.3.6.3 1v.9c0 .4-.1.7-.3 1-.1.1-.2.2-.4.3-.1.1-.3.1-.5.1s-.4 0-.5-.1c-.2-.1-.3-.2-.4-.3-.2-.2-.3-.6-.3-1v-.9c0-.4.1-.7.3-1 .1-.1.2-.2.4-.3.1-.1.3-.1.5-.1s.3 0 .5.1zm-1.1.5c-.1.2-.2.4-.2.7v.9c0 .3.1.5.2.7.1.1.3.2.6.2s.5-.1.6-.2c.1-.2.2-.4.2-.7v-.9c0-.3-.1-.5-.2-.7-.1-.1-.3-.2-.6-.2s-.5 0-.6.2zm4-.5c.2.1.3.1.4.3.2.2.3.6.3 1v.9c0 .4-.1.7-.3 1-.1.1-.2.2-.4.3-.1.1-.3.1-.5.1s-.4 0-.5-.1c-.2-.1-.3-.2-.4-.3-.2-.2-.3-.6-.3-1v-.9c0-.4.1-.7.3-1 .1-.1.2-.2.4-.3.1-.1.3-.1.5-.1s.4 0 .5.1zm-1.1.5c-.1.2-.2.4-.2.7v.9c0 .3.1.5.2.7.1.1.3.2.6.2s.5-.1.6-.2c.1-.2.2-.4.2-.7v-.9c0-.3-.1-.5-.2-.7-.1-.1-.3-.2-.6-.2-.2 0-.4 0-.6.2zm3.6-.6c.2 0 .4 0 .5.1.2.1.3.1.4.3.2.2.3.6.3 1v.9c0 .4-.1.7-.3 1-.1.1-.2.2-.4.3-.1.1-.3.1-.5.1h-1.2v-3.5h1.2zm-.8 3.1h.8c.3 0 .5-.1.6-.2.1-.2.2-.4.2-.7v-.9c0-.3-.1-.5-.2-.7-.1-.1-.3-.2-.6-.2h-.8v2.7z"/></svg>