<svg version="1.1" id="图层_1" xmlns="http://www.w3.org/2000/svg" x="0" y="0" viewBox="0 0 36 36" xml:space="preserve"><style>.st1{enable-background:new}</style><path d="M0 0h36v36H0V0z" fill="#fff"/><path d="M17.2 11.9c.1 0 .2 0 .3.1s.1.2.1.3 0 .2-.1.3-.2.1-.3.1h-1.5c.1.1.2.2.2.3 0 .1.1.1.1.2v.1c0 .1-.1.2-.2.2h-.3c-.1-.1-.2-.1-.3-.2-.1-.2-.2-.4-.4-.6l-.1-.1H14c-.1 0-.1 0-.1.1-.1.2-.3.3-.4.5v.6s0 .1.1.1h3.2c.2 0 .3.1.4.2s.2.2.2.4v.9c0 .1 0 .2-.1.3s-.2.1-.3.1-.2 0-.3-.1-.1-.2-.1-.3v-.6c0-.1 0-.1-.1-.1H9.8c-.1 0-.1 0-.1.1v.7c0 .1 0 .2-.1.3s-.2.1-.3.1-.2 0-.3-.1-.1-.2-.1-.3v-.9c0-.2.1-.3.2-.4s.2-.2.4-.2h3.1c.1 0 .1 0 .1-.1v-.6c-.1 0-.1-.1-.1-.2s0-.1.1-.2c.1 0 .1-.1.2-.1h-1.4c.1.1.1.2.2.3v.4c-.1.1-.1.2-.2.2h-.3c-.1-.1-.2-.1-.2-.2-.1-.2-.2-.3-.3-.5l-.1-.1H10s-.1 0-.1.1c-.1.2-.3.4-.5.6-.1.1-.2.1-.3.2-.1 0-.2 0-.3-.1-.1-.1-.2-.2-.2-.3 0-.1 0-.2.1-.3.4-.4.7-.8.9-1.3.1-.1.1-.2.3-.3h.3c.1 0 .2.1.2.2v.5h1.8c.2 0 .3.1.4.2s.2.2.2.4c.3-.3.5-.6.7-.9l.3-.3c.1 0 .2-.1.2-.1h.1c.1 0 .2.1.3.2v.5h2.8zm-5.9 5.3c-.1 0-.1.1 0 0l-.1.5c0 .1 0 .1.1.1h4.6c.2 0 .3.1.4.2s.2.2.2.4v1.4c0 .1 0 .2-.1.3s-.2.1-.3.1h-.2c-.1 0-.1 0-.2-.1s-.1-.1-.1-.2h-4.3c0 .1 0 .1-.1.2s-.1.1-.2.1h-.2c-.1 0-.2 0-.3-.1s-.1-.2-.1-.3v-4.2c0-.2.1-.3.2-.4s.2-.2.4-.2h4.3c.2 0 .3.1.4.2s.2.2.2.4v.9c0 .2-.1.3-.2.4s-.2.2-.4.2h-4zm3.5-1.3s0-.1 0 0l-3.6-.1s-.1 0-.1.1v.6c0 .1 0 .1.1.1h3.5s.1 0 .1-.1v-.6zm.7 2.7c0-.1 0-.1 0 0l-4.3-.1s-.1 0-.1.1v.6s0 .1.1.1h4.2s.1 0 .1-.1v-.6zm5.6-1.1h.1c.1 0 .1 0 .2.1s.2.1.2.3v.1c0 .1 0 .2-.1.3-.1.1-.2.2-.3.2-.8.3-1.5.5-2.3.8h-.1c-.1 0-.1 0-.2-.1s-.2-.2-.2-.3v-.1c0-.1 0-.2.1-.3.1-.1.2-.2.3-.2.3-.1.5-.1.7-.2l.1-.1v-2.4c0-.1 0-.1-.1-.1H19c-.1 0-.2 0-.3-.1s-.1-.2-.1-.3 0-.2.1-.3.2-.1.3-.1h.6c.1 0 .1 0 .1-.1v-1.8c0-.1 0-.1-.1-.1h-.7c-.1 0-.2 0-.3-.1s-.1-.2-.1-.3 0-.2.1-.3.2-.1.3-.1h2.3c.1 0 .2 0 .3.1s.1.2.1.3 0 .2-.1.3-.2.1-.3.1h-.6c-.1 0-.1 0-.1.1v1.8s0 .1.1.1h.4c.1 0 .2 0 .3.1s.1.2.1.3 0 .2-.1.3-.2.1-.3.1h-.4c-.1 0-.1 0-.1.1v2.1s.1 0 .3-.1.3 0 .3-.1zm4 1.6l2.1.1c.1 0 .2 0 .3.1s.1.2.1.3 0 .2-.1.3-.2.1-.3.1h-5.5c-.1 0-.2 0-.3-.1s-.1-.2-.1-.3 0-.2.1-.3.2-.1.3-.1h2.4c.1 0 .1 0 .1-.1v-1c0-.1 0-.1-.1-.1h-1.7c-.1 0-.2 0-.3-.1s-.1-.3-.1-.4 0-.2.1-.3.2-.1.3-.1h1.7c.1 0 .1 0 .1-.1v-.9s0-.1-.1-.1h-1.4c-.2 0-.3-.1-.4-.2-.1-.1-.2-.2-.2-.4v-3.3c0-.2.1-.3.2-.4s.2-.2.4-.2h4c.2 0 .3.1.4.2s.2.2.2.4v3.3c0 .2-.1.3-.2.4-.1.1-.2.2-.4.2h-1.4c-.1 0-.1 0-.1.1v.9s0 .1.1.1H27c.1 0 .2 0 .3.1s.1.2.1.3 0 .2-.1.3-.3.2-.4.2h-1.7c-.1 0-.1 0-.1.1v1zM23 12.4c-.1 0-.1 0 0 0l-.1 1s0 .1.1.1h1.2c.1 0 .1 0 .1-.1v-.9s0-.1-.1-.1H23zm0 1.8c-.1 0-.1 0 0 0l-.1 1c0 .1 0 .1.1.1h1.2c.1 0 .1 0 .1-.1v-.9c0-.1 0-.1-.1-.1H23zm3.2-.8c.1 0 .1 0 0 0l.1-1s0-.1-.1-.1h-1.1s-.1 0-.1.1v.9s0 .1.1.1h1.1zm0 1.9c.1 0 .1 0 0 0l.1-1c0-.1 0-.1-.1-.1h-1.1s-.1 0-.1.1v.9c0 .1 0 .1.1.1h1.1zM7.6 24v-1.9L6.7 24h-.2l-.9-1.9V24h-.3v-2.8h.3l1 2.3 1-2.3h.3V24h-.3zm2.6 0l-.2-.5H8.9l-.2.5h-.4l1-2.8h.2l1 2.8h-.3zm-.3-.8l-.5-1.3-.4 1.3h.9zm2.8.8l-1.3-2.1V24H11v-2.8h.2l1.3 2.1v-2.1h.3V24h-.1zm2.6 0l-.2-.5h-1.2l-.2.5h-.3l1-2.8h.2l1 2.8h-.3zm-.4-.8l-.5-1.3-.4 1.3h.9zm1.9-2c.2 0 .4.1.6.2.2.1.3.3.3.5l-.3.1c0-.1-.1-.2-.2-.3-.1-.1-.2-.1-.4-.1s-.4.1-.5.2c-.1.1-.2.3-.2.5v.7c0 .2.1.4.2.6.1.1.3.2.5.2s.4-.1.5-.2c.1-.1.2-.3.2-.6v-.2h-.6v-.3h1v.5c0 .3-.1.6-.2.8-.1.1-.2.2-.3.2h-.7c-.1 0-.3 0-.4-.1-.1 0-.2-.1-.3-.2-.2-.2-.2-.4-.2-.8v-.7c0-.3.1-.6.2-.8.1-.1.2-.2.3-.2h.5zm1.7.3v.9h1.3v.3h-1.3v.9h1.3v.4h-1.7v-2.8h1.7v.3h-1.3zm4.2 2.5v-1.9l-.9 1.9h-.2l-.9-1.9V24h-.3v-2.8h.3l1 2.3 1-2.3h.3V24h-.3zm1.2-2.5v.9h1.3v.3h-1.3v.9h1.3v.4h-1.7v-2.8h1.7v.3h-1.3zm3.6 2.5l-1.3-2.1V24h-.3v-2.8h.2l1.3 2.1v-2.1h.3V24h-.2zm1.7-2.5V24h-.3v-2.5h-.7v-.3h1.7v.3h-.7z"/></svg>