<svg version="1.1" id="图层_1" xmlns="http://www.w3.org/2000/svg" x="0" y="0" viewBox="0 0 36 36" xml:space="preserve"><style>.st3{fill:#13007d}</style><path fill="#fff" d="M0 0h36v36H0z"/><g id="V9t1iY.tif"><path d="M8.8 22.2V9h5c.1 0 .1 0 .1.1.1.2.1.3.2.5.3.9.7 1.8 1.1 2.7.5 1.3 1 2.5 1.5 3.8.4 1.1.9 2.2 1.3 3.3.2-.6.5-1.2.7-1.8.5-1.1.9-2.3 1.4-3.4.4-1 .8-2 1.2-3.1.3-.7.5-1.4.8-2 0 0 0-.1.1-.1h5v13.1c0 .1 0 .1-.1.1h-3c-.1 0-.2 0-.2-.2v-7.9c-.1.3-.3.6-.4.9-.3.6-.6 1.1-.8 1.7-.3.5-.5 1.1-.8 1.6-.2.4-.4.9-.7 1.3l-.9 1.8c-.1.2-.2.5-.3.7 0 .1-.1.1-.2.1h-3.5c-.1 0-.1 0-.2-.1-.4-.7-.7-1.5-1.1-2.2-.4-.9-.9-1.8-1.3-2.7l-.9-1.8-.6-1.2v7.9c0 .2 0 .2-.2.2H9c-.1-.1-.2-.1-.2-.1z" fill="#fd0000"/><path d="M22.1 9c-.1.3-.3.6-.4 1-1.2 3.1-2.5 6.3-3.7 9.4v.1c-.1-.2-.2-.4-.2-.6-1.3-3.3-2.6-6.6-3.9-9.8 2.7-.1 5.5-.1 8.2-.1z" fill="#fefefe"/><path class="st3" d="M8.8 22.8H12c.1 0 .1 0 .1.1v1.6c.2-.1.5-.2.7-.3 1.1-.5 2.2-.9 3.3-1.4h3.5c.2 0 .3 0 .5.1 1.3.5 2.5 1.1 3.8 1.6h.1v-1.6s0-.1.1-.1h3.1c.1 0 .1 0 .1.1v2.2c0 .1 0 .1-.1.1h-5c-.6-.3-1.2-.6-1.7-.9-.8-.4-1.5-.8-2.3-1.1h-.1c-1.1.6-2.2 1.1-3.3 1.7-.2.1-.4.2-.7.3H8.9c-.1-.9-.1-1.6-.1-2.4zm0 2.7h4.7c.1 0 .1 0 .1.1V27s0 .1-.1.1H8.8v-1.6z"/><path d="M22.1 9h5-5c.1 0 .1 0 0 0zm-8.3 0h-5 5z" fill="#fe9898"/><path class="st3" d="M18 27h-2.4c-.1 0-.1 0-.1-.1v-1.4c0-.1 0-.1.1-.1h4.7c.1 0 .1 0 .1.1v1.4c0 .1 0 .1-.1.1H18zm6.8 0h-2.3c-.1 0-.1 0-.1-.1v-1.4c0-.1 0-.1.1-.1h4.7c.1 0 .1 0 .1.1v1.4c0 .1 0 .1-.1.1h-2.4z"/></g></svg>