<svg version="1.1" id="图层_1" xmlns="http://www.w3.org/2000/svg" x="0" y="0" viewBox="0 0 36 36" xml:space="preserve"><style>.st3{fill:#efefef}</style><path d="M0 0h36v36H0V0z" fill="#009f35"/><path d="M24.1 8.8c.5 0 1.3.3 1.8.7.7.5 1.1 1.2 1.2 2.1v.4s0 .1-.1.1H12.1c-.1 0-.1 0-.1.1V27c0 .1 0 .1-.1.1-1.4-.1-2.4-.8-3-2.1-.2-.4-.3-.8-.3-1.2V12.7c0-.4 0-.8.1-1.2.1-.8.5-1.5 1.1-2 .5-.4 1.1-.7 1.8-.8h3.5c1.5.1 8.6.1 9 .1z" fill="#fff"/><path d="M15.3 8.8h-3.5 3.5z" fill="#41b868"/><path class="st3" d="M27.1 13.8s.1 0 .1.1v10c0 .8-.3 1.5-.9 2.1-.5.6-1.2.9-1.9 1h-.5c-.1 0-.1 0-.1-.1V17c0-.1 0-.1-.1-.1h-6.4c-.1 0-.1 0-.1.1v9.8c0 .1 0 .1-.1.1H14c-.1 0-.1 0-.1-.1V13.6l13.2.2z"/><path class="st3" d="M18.8 23v-4.1c0-.1 0-.1.1-.1H22c.1 0 .1 0 .1.1V27c0 .1 0 .1-.1.1h-3.2c-.1 0-.1 0-.1-.1.1-1.3.1-2.7.1-4z"/></svg>