<?xml version="1.0" encoding="utf-8"?>
<!-- Generator: Adobe Illustrator 24.0.0, SVG Export Plug-In . SVG Version: 6.00 Build 0)  -->
<svg version="1.1" id="Capa_1" xmlns="http://www.w3.org/2000/svg" xmlns:xlink="http://www.w3.org/1999/xlink" x="0px" y="0px"
	 viewBox="0 0 512 512" style="enable-background:new 0 0 512 512;" xml:space="preserve">
<style type="text/css">
	.st0{fill:#FFFFFF;}
</style>
<g>
	<path class="st0" d="M492,54.5H374c-11,0-20,9-20,20v74.3h-98c-11,0-20,9-20,20v74.4h-98c-11,0-20,9-20,20v74.4H20
		c-11,0-20,9-20,20v80c0,11,9,20,20,20h472c11,0,20-9,20-20v-363C512,63.5,503,54.5,492,54.5z M472,417.5H40v-40h98c11,0,20-9,20-20
		v-74.4h98c11,0,20-9,20-20v-74.4h98c11,0,20-9,20-20V94.5h78V417.5z"/>
</g>
</svg>
