<?xml version="1.0" encoding="utf-8"?>
<!-- Generator: Adobe Illustrator 24.0.0, SVG Export Plug-In . SVG Version: 6.00 Build 0)  -->
<svg version="1.1" id="图层_1" xmlns="http://www.w3.org/2000/svg" xmlns:xlink="http://www.w3.org/1999/xlink" x="0px" y="0px"
	 viewBox="0 0 24 24" style="enable-background:new 0 0 24 24;" xml:space="preserve">
<style type="text/css">
	.st0{fill:#FFFFFF;}
</style>
<path class="st0" d="M19,12.9c0-0.3,0.1-0.6,0.1-0.9s0-0.6-0.1-0.9l2-1.6c0.2-0.1,0.2-0.4,0.1-0.6l-1.9-3.3
	c-0.1-0.2-0.4-0.3-0.6-0.2l-2.4,1c-0.5-0.4-1-0.7-1.6-0.9L14.2,3c0-0.2-0.2-0.4-0.5-0.4H9.9C9.7,2.6,9.5,2.8,9.4,3L9.1,5.3
	C8.6,5.6,8,5.9,7.5,6.3l-2.4-1c-0.2-0.1-0.4,0-0.6,0.2L2.6,8.9c-0.1,0.2,0,0.4,0.2,0.6l2,1.6c0,0.3-0.1,0.6-0.1,0.9s0,0.6,0.1,0.9
	l-2,1.6c-0.2,0.1-0.2,0.4-0.1,0.6l1.9,3.3c0.1,0.2,0.4,0.3,0.6,0.2l2.4-1c0.5,0.4,1,0.7,1.6,0.9L9.6,21c0.1,0.2,0.2,0.4,0.5,0.4h3.8
	c0.2,0,0.4-0.2,0.5-0.4l0.4-2.5c0.6-0.2,1.1-0.6,1.6-0.9l2.4,1c0.2,0.1,0.5,0,0.6-0.2l1.9-3.3c0.1-0.2,0.1-0.5-0.1-0.6L19,12.9z
	 M11.9,15.6c-2,0-3.6-1.6-3.6-3.6s1.6-3.6,3.6-3.6s3.6,1.6,3.6,3.6S13.9,15.6,11.9,15.6z"/>
</svg>
