<svg xmlns="http://www.w3.org/2000/svg" viewBox="0 0 410.87 30.25"><defs><style>.cls-1{isolation:isolate}.cls-2{fill:#78797b}.cls-3{fill:#686a6c}.cls-4{fill:#f2f3f8}.cls-4,.cls-5,.cls-6,.cls-7,.cls-8{stroke:#040000;stroke-width:.5px}.cls-4,.cls-5,.cls-6,.cls-7{stroke-miterlimit:10}.cls-5{fill:#aeb2b4}.cls-6,.cls-7,.cls-8{fill:#fff}.cls-7{opacity:.3;mix-blend-mode:multiply}.cls-8{stroke-linecap:round;stroke-linejoin:round}.cls-9{fill:#932c3a}</style></defs><title>资源 1</title><g class="cls-1"><g id="图层_2" data-name="图层 2"><g id="图层_1-2" data-name="图层 1"><rect width="2.59" height="22.4" x="315.21" y="495.91" class="cls-2" transform="translate(521 523.53) rotate(180)"/><rect width="2.59" height="22.4" x="317.86" y="495.91" class="cls-2" transform="translate(526.3 523.53) rotate(180)"/><rect width="2.59" height="22.4" x="305.26" y="5.22" class="cls-2"/><rect width="2.59" height="22.4" x="307.89" y="5.22" class="cls-2"/><circle cx="354.78" cy="27.55" r="2.7" class="cls-3"/><circle cx="360.64" cy="27.55" r="2.7" class="cls-3"/><path d="M500.64,518.24a2.71,2.71,0,1,1-2.71-2.71A2.7,2.7,0,0,1,500.64,518.24Z" class="cls-3" transform="translate(-112.01 -490.69)"/><circle cx="391.77" cy="27.55" r="2.7" class="cls-3"/><path d="M310.48.25h95.63a4.52,4.52,0,0,1,4.52,4.52v22.7a0,0,0,0,1,0,0H310.48a0,0,0,0,1,0,0V.25A0,0,0,0,1,310.48.25Z" class="cls-4"/><rect width="14.8" height="10.54" x="334.49" y="5.46" class="cls-2" rx="2.1"/><rect width="1.68" height="7.81" x="408.94" y="5.22" class="cls-5"/><rect width="14.8" height="10.54" x="368.83" y="5.46" class="cls-2" rx="2.1"/><rect width="12.78" height="19.02" x="386.92" y="5.46" class="cls-6" rx="1.82"/><line x1="393.31" x2="393.31" y1="5.46" y2="24.48" class="cls-7"/><rect width="2.7" height="4.45" x="389.12" y="9.12" class="cls-8"/><rect width="2.7" height="4.45" x="394.94" y="9.12" class="cls-8"/><rect width="12.78" height="19.02" x="352.71" y="5.46" class="cls-6" rx="1.82"/><line x1="359.1" x2="359.1" y1="5.46" y2="24.48" class="cls-7"/><rect width="2.7" height="4.45" x="354.91" y="9.12" class="cls-8"/><rect width="2.7" height="4.45" x="360.73" y="9.12" class="cls-8"/><rect width="12.78" height="19.02" x="318.21" y="5.46" class="cls-6" rx="1.82"/><line x1="324.6" x2="324.6" y1="5.46" y2="24.48" class="cls-7"/><rect width="2.7" height="4.45" x="320.41" y="9.12" class="cls-8"/><rect width="2.7" height="4.45" x="326.23" y="9.12" class="cls-8"/><rect width="100.14" height="3.56" x="310.48" y="17.32" class="cls-9"/><circle cx="251.98" cy="27.55" r="2.7" class="cls-3"/><circle cx="257.83" cy="27.55" r="2.7" class="cls-3"/><path d="M397.83,518.24a2.71,2.71,0,1,1-2.7-2.71A2.7,2.7,0,0,1,397.83,518.24Z" class="cls-3" transform="translate(-112.01 -490.69)"/><circle cx="288.97" cy="27.55" r="2.7" class="cls-3"/><rect width="97.84" height="27.37" x="207.68" y=".25" class="cls-4"/><rect width="14.8" height="10.54" x="231.69" y="5.46" class="cls-2" rx="2.42"/><rect width="14.8" height="10.54" x="266.03" y="5.46" class="cls-2" rx="2.42"/><rect width="2.59" height="22.4" x="205.08" y="5.22" class="cls-2"/><rect width="2.59" height="22.4" x="202.44" y="5.22" class="cls-2"/><rect width="12.78" height="19.02" x="283.71" y="5.46" class="cls-6" rx="1.82"/><line x1="290.1" x2="290.1" y1="5.46" y2="24.48" class="cls-7"/><rect width="2.7" height="4.45" x="285.91" y="9.12" class="cls-8"/><rect width="2.7" height="4.45" x="291.73" y="9.12" class="cls-8"/><rect width="12.78" height="19.02" x="249.99" y="5.46" class="cls-6" rx="1.82"/><line x1="256.38" x2="256.38" y1="5.46" y2="24.48" class="cls-7"/><rect width="2.7" height="4.45" x="252.19" y="9.12" class="cls-8"/><rect width="2.7" height="4.45" x="258.01" y="9.12" class="cls-8"/><rect width="12.78" height="19.02" x="215.49" y="5.46" class="cls-6" rx="1.82"/><line x1="221.88" x2="221.88" y1="5.46" y2="24.48" class="cls-7"/><rect width="2.7" height="4.45" x="217.69" y="9.12" class="cls-8"/><rect width="2.7" height="4.45" x="223.51" y="9.12" class="cls-8"/><rect width="2.59" height="22.4" x="215.03" y="495.91" class="cls-2" transform="translate(320.64 523.53) rotate(180)"/><rect width="2.59" height="22.4" x="212.41" y="495.91" class="cls-2" transform="translate(315.39 523.53) rotate(180)"/><circle cx="56.09" cy="27.55" r="2.7" class="cls-3"/><circle cx="50.24" cy="27.55" r="2.7" class="cls-3"/><path d="M134.26,518.24a2.71,2.71,0,1,0,2.71-2.71A2.7,2.7,0,0,0,134.26,518.24Z" class="cls-3" transform="translate(-112.01 -490.69)"/><circle cx="19.1" cy="27.55" r="2.7" class="cls-3"/><path d="M112.26,490.94H212.41a0,0,0,0,1,0,0v22.7a4.52,4.52,0,0,1-4.52,4.52H112.26a0,0,0,0,1,0,0V490.94a0,0,0,0,1,0,0Z" class="cls-4" transform="translate(212.66 518.41) rotate(180)"/><rect width="14.8" height="10.54" x="173.59" y="496.15" class="cls-2" rx="2.1" transform="translate(249.97 512.16) rotate(180)"/><rect width="1.68" height="7.81" x=".25" y="5.22" class="cls-5"/><rect width="14.8" height="10.54" x="139.26" y="496.15" class="cls-2" rx="2.1" transform="translate(181.3 512.16) rotate(180)"/><rect width="12.78" height="19.02" x="123.19" y="496.15" class="cls-6" rx="1.82" transform="translate(147.15 520.63) rotate(180)"/><line x1="17.57" x2="17.57" y1="5.46" y2="24.48" class="cls-7"/><rect width="2.7" height="4.45" x="19.05" y="9.12" class="cls-8"/><rect width="2.7" height="4.45" x="13.23" y="9.12" class="cls-8"/><rect width="12.78" height="19.02" x="157.4" y="496.15" class="cls-6" rx="1.82" transform="translate(215.56 520.63) rotate(180)"/><line x1="51.77" x2="51.77" y1="5.46" y2="24.48" class="cls-7"/><rect width="2.7" height="4.45" x="53.25" y="9.12" class="cls-8"/><rect width="2.7" height="4.45" x="47.43" y="9.12" class="cls-8"/><rect width="12.78" height="19.02" x="191.9" y="496.15" class="cls-6" rx="1.82" transform="translate(284.56 520.63) rotate(180)"/><line x1="86.27" x2="86.27" y1="5.46" y2="24.48" class="cls-7"/><rect width="2.7" height="4.45" x="87.75" y="9.12" class="cls-8"/><rect width="2.7" height="4.45" x="81.93" y="9.12" class="cls-8"/><rect width="100.14" height="3.56" x=".25" y="17.32" class="cls-9"/><circle cx="158.9" cy="27.55" r="2.7" class="cls-3"/><circle cx="153.04" cy="27.55" r="2.7" class="cls-3"/><path d="M237.07,518.24a2.71,2.71,0,1,0,2.7-2.71A2.7,2.7,0,0,0,237.07,518.24Z" class="cls-3" transform="translate(-112.01 -490.69)"/><circle cx="121.91" cy="27.55" r="2.7" class="cls-3"/><rect width="97.84" height="27.37" x="217.38" y="490.94" class="cls-4" transform="translate(420.57 518.56) rotate(180)"/><rect width="14.8" height="10.54" x="276.4" y="496.15" class="cls-2" rx="2.42" transform="translate(455.58 512.16) rotate(180)"/><rect width="14.8" height="10.54" x="242.06" y="496.15" class="cls-2" rx="2.42" transform="translate(386.91 512.16) rotate(180)"/><rect width="12.78" height="19.02" x="226.4" y="496.15" class="cls-6" rx="1.82" transform="translate(353.56 520.63) rotate(180)"/><line x1="120.77" x2="120.77" y1="5.46" y2="24.48" class="cls-7"/><rect width="2.7" height="4.45" x="122.25" y="9.12" class="cls-8"/><rect width="2.7" height="4.45" x="116.43" y="9.12" class="cls-8"/><rect width="12.78" height="19.02" x="260.12" y="496.15" class="cls-6" rx="1.82" transform="translate(421.01 520.63) rotate(180)"/><line x1="154.5" x2="154.5" y1="5.46" y2="24.48" class="cls-7"/><rect width="2.7" height="4.45" x="155.98" y="9.12" class="cls-8"/><rect width="2.7" height="4.45" x="150.16" y="9.12" class="cls-8"/><rect width="12.78" height="19.02" x="294.62" y="496.15" class="cls-6" rx="1.82" transform="translate(490.01 520.63) rotate(180)"/><line x1="189" x2="189" y1="5.46" y2="24.48" class="cls-7"/><rect width="2.7" height="4.45" x="190.48" y="9.12" class="cls-8"/><rect width="2.7" height="4.45" x="184.66" y="9.12" class="cls-8"/><rect width="97.84" height="3.56" x="207.68" y="17.32" class="cls-9"/><rect width="97.84" height="3.56" x="105.36" y="17.32" class="cls-9"/></g></g></g></svg>