<svg id="图层_1" data-name="图层 1" xmlns="http://www.w3.org/2000/svg" viewBox="0 0 48 48"><defs><style>.cls-1,.cls-4,.cls-7{fill:#950012;}.cls-1,.cls-2,.cls-3,.cls-4,.cls-7{stroke:#950012;}.cls-1,.cls-2,.cls-3,.cls-4,.cls-5,.cls-6,.cls-7{stroke-linecap:round;stroke-linejoin:round;}.cls-1{stroke-width:3px;opacity:0.05;}.cls-2,.cls-3{fill:none;}.cls-2{stroke-width:0.75px;stroke-dasharray:3.44;}.cls-4,.cls-5{stroke-width:0.1px;}.cls-5,.cls-6{fill:#221714;stroke:#221714;}.cls-6,.cls-7{stroke-width:0.07px;}</style></defs><title>ic_launcher_foreground</title><polyline class="cls-1" points="24 21.64 17.14 11.36 6 33.64 9 36.64 18 18.64 24 27.64 30 18.64 39 36.64 42 33.64 33 15.64 30.86 11.36 24 21.64"/><path class="cls-2" d="M14.05,13.88v3.43"/><polygon class="cls-3" points="15.81 32.63 16.09 34.13 12.02 34.13 12.83 29.79 15.27 17.85 12.83 16.77 15.27 29.79 15.81 32.63"/><path class="cls-4" d="M22.77,17.6H20.13a.2.2,0,0,0-.2.19v.59a4.48,4.48,0,0,1-.39,2.05.19.19,0,0,1-.29.06l0,0a.18.18,0,0,1-.05-.24,3.88,3.88,0,0,0,.35-1.86v-1a.2.2,0,0,1,.19-.2H20.8A.19.19,0,0,0,21,17v-.17a.2.2,0,0,1,.2-.2h0a.2.2,0,0,1,.2.2V17a.2.2,0,0,0,.19.19h1.17a.2.2,0,0,1,.2.2h0A.2.2,0,0,1,22.77,17.6Z"/><path class="cls-4" d="M24.05,18a4.27,4.27,0,0,1-.26.9.17.17,0,0,1-.22.08h0a.17.17,0,0,1-.09-.23,4.26,4.26,0,0,0,.26-.81.17.17,0,0,1,.21-.14h0A.16.16,0,0,1,24.05,18Zm.43-1.23a.17.17,0,0,1,.17.17v1.17a3.28,3.28,0,0,1-.74,2.41.17.17,0,0,1-.25,0,.12.12,0,0,1-.05,0,.17.17,0,0,1,0-.24,2.87,2.87,0,0,0,.65-2.11V16.9a.17.17,0,0,1,.17-.17Zm.59,1.21a4.66,4.66,0,0,1,.25.78.16.16,0,0,1-.1.19h0A.18.18,0,0,1,25,18.8a6,6,0,0,0-.22-.73.19.19,0,0,1,.1-.23h0A.17.17,0,0,1,25.07,17.94Zm.78-1v3.17a.17.17,0,0,1-.17.17h-.05a.18.18,0,0,1-.17-.17V17a.18.18,0,0,1,.17-.17h.05A.17.17,0,0,1,25.85,17Zm.42.9a4.47,4.47,0,0,1,.34.76.17.17,0,0,1-.08.21h0a.17.17,0,0,1-.25-.1,4.88,4.88,0,0,0-.31-.72.17.17,0,0,1,.08-.23h0A.18.18,0,0,1,26.27,17.89Zm.85-1V20.4a.17.17,0,0,1-.18.17h-.05a.17.17,0,0,1-.18-.17V16.89a.18.18,0,0,1,.18-.18h.05A.18.18,0,0,1,27.12,16.89Z"/><path class="cls-4" d="M28.75,19.15,29,19a.07.07,0,0,1,.1,0l.06.22a.09.09,0,0,1,0,.08c-.41.2-.85.4-1.21.56a.07.07,0,0,1-.1,0l-.1-.27a.07.07,0,0,1,0-.09c.13,0,.29-.11.46-.18a.05.05,0,0,0,0-.06V18.12a.07.07,0,0,0-.07-.07h-.39a.07.07,0,0,1-.07-.07v-.24a.07.07,0,0,1,.07-.07h.39a.07.07,0,0,0,.07-.07v-.82a.08.08,0,0,1,.07-.07h.24a.07.07,0,0,1,.07.07v.82a.07.07,0,0,0,.07.07h.34a.07.07,0,0,1,.07.07V18a.07.07,0,0,1-.07.07h-.34a.07.07,0,0,0-.07.07v1A.07.07,0,0,0,28.75,19.15Zm2.3,1c.22,0,.27-.09.31-.47a.07.07,0,0,1,.1-.06.56.56,0,0,0,.2.08.06.06,0,0,1,.05.08c-.05.55-.18.73-.64.73h-1c-.53,0-.68-.13-.68-.65V18.73a.07.07,0,0,0-.1-.06l-.13.06a.08.08,0,0,1-.09,0l-.1-.23s0-.07,0-.09l.34-.14a.08.08,0,0,0,0-.07v-1a.08.08,0,0,1,.07-.08h.24a.08.08,0,0,1,.07.08v.8a.07.07,0,0,0,.1.07l.34-.15a.06.06,0,0,0,.05-.06V16.73a.07.07,0,0,1,.07-.07h.23a.07.07,0,0,1,.07.07v.85a.08.08,0,0,0,.1.07l.36-.16h0l.07-.05,0,0a.06.06,0,0,1,.07,0l.18.07a.07.07,0,0,1,0,.08h0v0c0,.8,0,1.38,0,1.55a.32.32,0,0,1-.23.31,1.34,1.34,0,0,1-.35,0,.07.07,0,0,1-.07-.06c0-.06,0-.13-.05-.19a.07.07,0,0,1,.07-.09H31c.06,0,.1,0,.12-.1s0-.45,0-1a.07.07,0,0,0-.1-.07l-.36.16a.08.08,0,0,0,0,.06v1.44a.07.07,0,0,1-.07.07h-.23a.07.07,0,0,1-.07-.07V18.36a.07.07,0,0,0-.1-.06l-.35.15a.07.07,0,0,0,0,.06v1.37c0,.24,0,.29.33.29Z"/><path class="cls-4" d="M32.62,17.55a3.38,3.38,0,0,1-.27.36.13.13,0,0,1-.22,0,.75.75,0,0,0-.07-.12.14.14,0,0,1,0-.16,2.76,2.76,0,0,0,.53-.82.13.13,0,0,1,.16-.08l.1,0a.13.13,0,0,1,.08.18h0a.14.14,0,0,0,.13.19h.51a.13.13,0,0,1,.14.13v.11a.14.14,0,0,1-.14.14h-.86A.14.14,0,0,0,32.62,17.55Zm1.09,2.32a.64.64,0,0,1,0,.07.15.15,0,0,1-.07.15c-.46.24-.67.36-.79.43a.13.13,0,0,1-.19-.06l-.06-.1a.14.14,0,0,1,0-.17.41.41,0,0,0,.12-.28v-.65a.13.13,0,0,0-.14-.13h-.34a.15.15,0,0,1-.14-.14V18.9a.14.14,0,0,1,.14-.13h.34a.14.14,0,0,0,.14-.14v-.24a.14.14,0,0,0-.14-.14h-.11a.13.13,0,0,1-.14-.13V18a.14.14,0,0,1,.14-.14h1a.13.13,0,0,1,.13.14v.09a.13.13,0,0,1-.13.13h-.22a.14.14,0,0,0-.14.14v.24a.14.14,0,0,0,.14.14h.33a.13.13,0,0,1,.14.13V19a.14.14,0,0,1-.14.14h-.33a.13.13,0,0,0-.14.13v.48a.14.14,0,0,0,.2.12l.18-.09A.13.13,0,0,1,33.71,19.87Zm1.47-.78a2.12,2.12,0,0,0,.73,1.1.12.12,0,0,1,0,.19l-.09.11a.13.13,0,0,1-.19,0,2.11,2.11,0,0,1-.64-.84.13.13,0,0,0-.24,0,2.37,2.37,0,0,1-.74.86.14.14,0,0,1-.18,0l-.08-.09a.13.13,0,0,1,0-.2,2,2,0,0,0,.8-1.14.14.14,0,0,0-.13-.18H34a.13.13,0,0,1-.13-.13v-.11a.13.13,0,0,1,.13-.14h.61a.14.14,0,0,0,.14-.13c0-.14,0-.28,0-.4v-.09a.14.14,0,0,0-.14-.14h-.22a.14.14,0,0,0-.13.1,2.84,2.84,0,0,1-.13.35.14.14,0,0,1-.19.06l-.09-.05a.13.13,0,0,1-.05-.18A3.7,3.7,0,0,0,34,17a.14.14,0,0,1,.16-.11h.1a.14.14,0,0,1,.12.16c0,.08,0,.15,0,.23a.13.13,0,0,0,.13.16h.06a.14.14,0,0,0,.14-.14v-.45a.14.14,0,0,1,.13-.14H35a.14.14,0,0,1,.14.14v.45a.14.14,0,0,0,.14.14h.5a.13.13,0,0,1,.14.13v.1a.13.13,0,0,1-.14.13h-.5a.14.14,0,0,0-.14.14V18c0,.12,0,.25,0,.39a.13.13,0,0,0,.13.14h.62a.14.14,0,0,1,.14.14v.11a.13.13,0,0,1-.14.13h-.53A.14.14,0,0,0,35.18,19.09Z"/><path class="cls-5" d="M22.77,24.14v1.53a.12.12,0,0,1-.12.13h-.16a.13.13,0,0,1-.13-.13h0a.13.13,0,0,0-.13-.13h-2.3a.12.12,0,0,0-.12.13h0a.12.12,0,0,1-.13.12h-.15a.12.12,0,0,1-.13-.12V24.14a.13.13,0,0,1,.13-.13h.15a.13.13,0,0,1,.13.13V25a.12.12,0,0,0,.12.13h.79a.13.13,0,0,0,.13-.13V23.88a.13.13,0,0,0-.13-.13h-1a.13.13,0,0,1-.13-.13V22.37a.13.13,0,0,1,.13-.13h.15a.13.13,0,0,1,.13.13v.87a.12.12,0,0,0,.12.12h.63a.12.12,0,0,0,.13-.12V22a.13.13,0,0,1,.13-.13h.15a.13.13,0,0,1,.13.13v1.24a.12.12,0,0,0,.13.12h.67a.12.12,0,0,0,.12-.12v-.87a.13.13,0,0,1,.13-.13h.17a.13.13,0,0,1,.13.13v1.25a.13.13,0,0,1-.13.13H21.39a.13.13,0,0,0-.13.13V25a.13.13,0,0,0,.13.13h.84a.13.13,0,0,0,.13-.13v-.88a.13.13,0,0,1,.13-.13h.16A.12.12,0,0,1,22.77,24.14Z"/><path class="cls-5" d="M25.18,24.7l0,.19a.1.1,0,0,1-.07.09l-1.54.36a.09.09,0,0,1-.11-.07l-.05-.22a.09.09,0,0,1,.07-.11c.26,0,.57-.11.91-.18h0a14.88,14.88,0,0,0,.21-1.51.11.11,0,0,1,.11-.09l.21,0a.09.09,0,0,1,.07.1c-.06.41-.13.88-.2,1.25a.08.08,0,0,0,.1.1l.17,0C25.12,24.6,25.17,24.64,25.18,24.7ZM25.06,23H23.59A.09.09,0,0,1,23.5,23v-.2a.09.09,0,0,1,.09-.09h.47a.09.09,0,0,0,.09-.09V22a.1.1,0,0,1,.09-.1h.19a.1.1,0,0,1,.09.1v.58a.09.09,0,0,0,.09.09h.45a.09.09,0,0,1,.09.09V23A.09.09,0,0,1,25.06,23Zm-1.25,1.58a8.85,8.85,0,0,0-.15-1.28.08.08,0,0,1,.07-.1l.15,0a.09.09,0,0,1,.11.07,9,9,0,0,1,.16,1.31.09.09,0,0,1-.08.09l-.16,0A.09.09,0,0,1,23.81,24.62Zm2.54-1.46v.61a.09.09,0,0,0,.09.09h.68a.09.09,0,0,1,.09.09v1.74a.09.09,0,0,1-.09.09h-.23a.09.09,0,0,1-.09-.09h0a.09.09,0,0,0-.09-.09h-1a.09.09,0,0,0-.09.09h0a.1.1,0,0,1-.09.1h-.21a.1.1,0,0,1-.09-.1V24a.09.09,0,0,1,.09-.09h.52a.09.09,0,0,0,.09-.09V21.92a.09.09,0,0,1,.09-.09h.23a.09.09,0,0,1,.09.09v.67a.09.09,0,0,0,.09.09h.85a.09.09,0,0,1,.09.09V23a.1.1,0,0,1-.09.1h-.85A.09.09,0,0,0,26.35,23.16Zm.36,1.08h-1a.09.09,0,0,0-.09.1v.79a.09.09,0,0,0,.09.09h1a.09.09,0,0,0,.09-.09v-.79A.09.09,0,0,0,26.71,24.24Z"/><path class="cls-5" d="M29.19,24.06l-.4.11a.11.11,0,0,0-.07.09v1.09c0,.21,0,.32-.17.38a1.2,1.2,0,0,1-.53.07.08.08,0,0,1-.08-.07l-.06-.18a.09.09,0,0,1,.09-.11h.27c.06,0,.09,0,.09-.09v-.93a.09.09,0,0,0-.11-.08l-.33.09a.08.08,0,0,1-.11-.06l-.06-.22a.09.09,0,0,1,.06-.1l.48-.12a.09.09,0,0,0,.07-.08v-.71a.09.09,0,0,0-.09-.09h-.39a.09.09,0,0,1-.09-.08v-.2a.09.09,0,0,1,.09-.09h.39a.09.09,0,0,0,.09-.09v-.66a.08.08,0,0,1,.08-.09h.23a.09.09,0,0,1,.08.09v.66a.09.09,0,0,0,.09.09h.3a.08.08,0,0,1,.08.09V23a.08.08,0,0,1-.08.08h-.3a.09.09,0,0,0-.09.09v.55a.09.09,0,0,0,.11.08l.29-.08a.09.09,0,0,1,.11.07l0,.2A.08.08,0,0,1,29.19,24.06Zm.34-.17h1.88a.09.09,0,0,1,.08.09v1.71a.09.09,0,0,1-.08.09h-.23a.09.09,0,0,1-.09-.09h0a.07.07,0,0,0-.08-.08h-1.1a.08.08,0,0,0-.09.08v0a.08.08,0,0,1-.08.09h-.21a.09.09,0,0,1-.09-.09V24A.09.09,0,0,1,29.53,23.89Zm1.5-.67c.2,0,.25-.06.28-.39a.09.09,0,0,1,.12-.07l.19.07a.09.09,0,0,1,.06.09c-.06.53-.19.66-.62.66h-.93c-.54,0-.68-.11-.68-.54v-1.1a.09.09,0,0,1,.09-.09h.22a.09.09,0,0,1,.09.09v.41a.09.09,0,0,0,.1.09,6.93,6.93,0,0,0,1.13-.35.08.08,0,0,1,.09,0l.16.16a.08.08,0,0,1,0,.14,9,9,0,0,1-1.38.36.09.09,0,0,0-.07.09V23c0,.15,0,.18.31.18Zm-1.21,1.09v.19a.09.09,0,0,0,.09.09H31a.08.08,0,0,0,.08-.09v-.19a.08.08,0,0,0-.08-.08h-1.1A.09.09,0,0,0,29.82,24.31Zm1.27.88V25a.07.07,0,0,0-.08-.08h-1.1a.08.08,0,0,0-.09.08v.2a.09.09,0,0,0,.09.09H31A.08.08,0,0,0,31.09,25.19Z"/><path class="cls-5" d="M34.26,22.77v.08a.16.16,0,0,0,.16.16h1.15a.16.16,0,0,1,.16.16v2.19c0,.22-.06.32-.21.37a1.71,1.71,0,0,1-.62.06.14.14,0,0,1-.15-.1v0a.16.16,0,0,1,.15-.21h.33c.08,0,.1,0,.1-.09V23.54a.16.16,0,0,0-.16-.16H32.91a.16.16,0,0,0-.16.16v2.1a.16.16,0,0,1-.15.16h-.09a.16.16,0,0,1-.16-.16V23.17a.16.16,0,0,1,.16-.16h1.15a.16.16,0,0,0,.16-.16v-.08a.16.16,0,0,0-.16-.15H32.31a.16.16,0,0,1-.16-.16V22.4a.16.16,0,0,1,.16-.16h1.35a.16.16,0,0,0,.16-.16V22a.16.16,0,0,1,.16-.15h.12a.16.16,0,0,1,.16.15v.07a.16.16,0,0,0,.16.16h1.35a.16.16,0,0,1,.15.16v.06a.16.16,0,0,1-.15.16H34.42A.16.16,0,0,0,34.26,22.77Zm0,2.41v.37a.15.15,0,0,1-.15.15H34a.16.16,0,0,1-.16-.15v-.37a.16.16,0,0,0-.15-.16h-.56a.16.16,0,0,1-.15-.16h0a.16.16,0,0,1,.15-.16h.56a.16.16,0,0,0,.15-.16v-.05a.16.16,0,0,0-.15-.16h-.47a.16.16,0,0,1-.15-.16h0a.16.16,0,0,1,.15-.16h0a.16.16,0,0,0,.14-.22.54.54,0,0,1,0-.11.15.15,0,0,1,.09-.22h0a.15.15,0,0,1,.17.07,1.61,1.61,0,0,1,.18.34s0,.06,0,.06h0a0,0,0,0,0,0,.09h.34a.14.14,0,0,0,.13-.08,3.37,3.37,0,0,0,.19-.38.16.16,0,0,1,.19-.09h0a.15.15,0,0,1,.09.22.41.41,0,0,1,0,.09.16.16,0,0,0,.14.23h0a.16.16,0,0,1,.16.16h0a.16.16,0,0,1-.16.16h-.5a.16.16,0,0,0-.16.16v.05a.16.16,0,0,0,.16.16H35a.16.16,0,0,1,.16.16h0A.16.16,0,0,1,35,25h-.59A.16.16,0,0,0,34.21,25.18Z"/><path class="cls-6" d="M19.34,28.37h1a.14.14,0,0,1,.14.14h0a.14.14,0,0,1-.14.14h-.64a.14.14,0,0,0-.14.14v.31a.14.14,0,0,0,.14.14h.5a.15.15,0,0,1,.14.14h0a.15.15,0,0,1-.14.15h-.5a.14.14,0,0,0-.14.14v.4a.14.14,0,0,0,.14.14h.67a.14.14,0,0,1,.14.14h0a.14.14,0,0,1-.14.14h-1a.14.14,0,0,1-.14-.14V28.51A.14.14,0,0,1,19.34,28.37Z"/><path class="cls-6" d="M21,29.59l-.29-.46a.15.15,0,0,1,.13-.22h0A.14.14,0,0,1,21,29l.15.24h0l.15.26h0c0-.09.09-.17.13-.26l.13-.24a.14.14,0,0,1,.13-.08h0a.14.14,0,0,1,.12.22l-.29.5a.14.14,0,0,0,0,.15l.32.49a.14.14,0,0,1-.13.22h0a.13.13,0,0,1-.12-.07l-.17-.26a2.54,2.54,0,0,0-.16-.28h0l-.15.28-.14.26a.17.17,0,0,1-.13.07h0a.14.14,0,0,1-.13-.22l.33-.53A.14.14,0,0,0,21,29.59Z"/><path class="cls-6" d="M22.46,28.22a.2.2,0,0,1,.21.19c0,.15-.13.23-.29.19a.15.15,0,0,1-.11-.11A.2.2,0,0,1,22.46,28.22Zm0,.69h0a.17.17,0,0,1,.17.17v1.25a.17.17,0,0,1-.17.16h0a.16.16,0,0,1-.16-.16V29.08A.16.16,0,0,1,22.46,28.91Z"/><path class="cls-6" d="M23.18,30v-.69a.13.13,0,0,0-.12-.12h0a.11.11,0,0,1-.11-.11v0a.1.1,0,0,1,.1-.11h.05a.12.12,0,0,0,.1-.11l0-.23a.13.13,0,0,1,.12-.11h.05a.12.12,0,0,1,.12.12v.2a.11.11,0,0,0,.11.12h.18a.11.11,0,0,1,.12.11v0a.11.11,0,0,1-.12.11h-.18a.12.12,0,0,0-.11.12V30c0,.19.06.29.23.29h.06a.13.13,0,0,1,.14.08v0a.11.11,0,0,1-.08.14l-.2,0C23.3,30.53,23.18,30.31,23.18,30Z"/><path class="cls-6" d="M24.83,29.44a1,1,0,0,1,1-1.11.84.84,0,0,1,.53.18.13.13,0,0,1,0,.19h0a.14.14,0,0,1-.18,0,.6.6,0,0,0-.34-.11c-.4,0-.66.31-.66.81s.23.81.67.81a.75.75,0,0,0,.26,0,.16.16,0,0,0,.07-.13v-.29a.13.13,0,0,0-.13-.13h-.15a.14.14,0,0,1-.14-.14h0a.15.15,0,0,1,.14-.14h.45a.14.14,0,0,1,.14.14v.72a.16.16,0,0,1-.05.11,1,1,0,0,1-1.6-.89Z"/><path class="cls-6" d="M26.91,29.91v-.86a.14.14,0,0,1,.14-.14h.05a.14.14,0,0,1,.14.14v.82c0,.27.08.38.27.38a.42.42,0,0,0,.34-.2.11.11,0,0,0,0-.09v-.91a.14.14,0,0,1,.14-.14h0a.14.14,0,0,1,.14.14v1.3a.14.14,0,0,1-.14.14h0a.14.14,0,0,1-.15-.12v-.12h0a.65.65,0,0,1-.51.28C27.06,30.53,26.91,30.31,26.91,29.91Z"/><path class="cls-6" d="M28.68,28.38a.18.18,0,0,1,.2-.16.2.2,0,0,1,.21.19.19.19,0,0,1-.19.2A.21.21,0,0,1,28.68,28.38Zm0,.53h.33v1.58h-.33V28.91Z"/><path class="cls-6" d="M29.44,29.7a.74.74,0,0,1,.68-.83.56.56,0,0,1,.23.05.13.13,0,0,0,.18-.13h0v-.45a.13.13,0,0,1,.13-.13h.07a.13.13,0,0,1,.13.13v2a.13.13,0,0,1-.13.13h0c-.06,0-.43,0-.61,0C29.69,30.53,29.44,30.23,29.44,29.7Zm1.09.31v-.66a.12.12,0,0,0-.05-.1.45.45,0,0,0-.3-.1c-.22,0-.4.21-.4.55s.14.56.39.56a.44.44,0,0,0,.32-.15A.18.18,0,0,0,30.53,30Z"/><path class="cls-6" d="M31.25,29.7a.77.77,0,0,1,.72-.83c.42,0,.65.3.65.75a.13.13,0,0,1,0,.06.11.11,0,0,1-.12.11h-.77a.13.13,0,0,0-.12.16.47.47,0,0,0,.46.32.67.67,0,0,0,.28-.06.12.12,0,0,1,.16.05h0a.12.12,0,0,1-.06.17.93.93,0,0,1-.42.1A.76.76,0,0,1,31.25,29.7Zm1-.14a.12.12,0,0,0,.11-.15.31.31,0,0,0-.34-.28.39.39,0,0,0-.36.26.13.13,0,0,0,.11.17Z"/><path class="cls-6" d="M19.23,31.72H20a.11.11,0,0,1,.11.1h0a.11.11,0,0,1-.11.1h-.48a.1.1,0,0,0-.1.1v.28a.1.1,0,0,0,.1.11h.38a.09.09,0,0,1,.1.1h0a.1.1,0,0,1-.1.11h-.38a.09.09,0,0,0-.1.1v.48a.11.11,0,0,1-.11.1h0a.1.1,0,0,1-.1-.1V31.82A.1.1,0,0,1,19.23,31.72Z"/><path class="cls-6" d="M20.24,32.51c0-.51.28-.82.69-.82s.69.31.69.82-.28.83-.69.83S20.24,33,20.24,32.51Zm1.13,0c0-.37-.18-.6-.44-.6s-.43.23-.43.6.17.61.43.61S21.37,32.88,21.37,32.51Z"/><path class="cls-6" d="M22,31.84a.12.12,0,0,1,.13-.12h.39c.33,0,.58.12.58.46a.45.45,0,0,1-.22.41.12.12,0,0,0,0,.16l.22.38a.12.12,0,0,1-.11.18h0a.11.11,0,0,1-.1-.06l-.29-.52a.14.14,0,0,0-.11-.06h-.06a.12.12,0,0,0-.13.12v.4a.12.12,0,0,1-.12.12h0a.12.12,0,0,1-.13-.12Zm.49.63c.24,0,.36-.1.36-.29s-.12-.26-.36-.26h-.11a.13.13,0,0,0-.13.12v.31a.13.13,0,0,0,.13.12Z"/><path class="cls-7" d="M23.77,32.52a.75.75,0,0,1,.74-.83.68.68,0,0,1,.4.13.11.11,0,0,1,0,.15h0a.11.11,0,0,1-.14,0,.42.42,0,0,0-.26-.08c-.3,0-.49.23-.49.6s.17.61.5.61a.45.45,0,0,0,.2,0,.11.11,0,0,0,.05-.09v-.22a.09.09,0,0,0-.1-.1h-.11a.1.1,0,0,1-.1-.1h0a.1.1,0,0,1,.1-.11h.34a.11.11,0,0,1,.1.11v.54a.12.12,0,0,1,0,.08.75.75,0,0,1-1.2-.67Z"/><path class="cls-7" d="M25.28,33.13l.67-1a.1.1,0,0,0-.08-.16h-.43a.1.1,0,0,1-.1-.11h0a.1.1,0,0,1,.1-.1h.82a.11.11,0,0,1,.11.1v0a.14.14,0,0,1,0,.06l-.67,1a.1.1,0,0,0,.09.16h.5a.11.11,0,0,1,.11.1h0a.11.11,0,0,1-.11.11h-.9a.11.11,0,0,1-.11-.11h0A.14.14,0,0,1,25.28,33.13Z"/><path class="cls-7" d="M26.79,31.72h.1a.12.12,0,0,1,.11.07l.26.73c0,.11.07.22.11.32h0c0-.1.06-.21.1-.32l.26-.73a.12.12,0,0,1,.11-.07H28a.11.11,0,0,1,.11.11V33.2a.11.11,0,0,1-.11.11h0a.11.11,0,0,1-.12-.11v-.68a4.22,4.22,0,0,1,0-.49h0l-.13.37-.25.68a.11.11,0,0,1-.1.08h0a.12.12,0,0,1-.11-.08L27,32.4,26.89,32h0c0,.15,0,.35,0,.49v.68a.11.11,0,0,1-.11.11h0a.11.11,0,0,1-.11-.11V31.83A.11.11,0,0,1,26.79,31.72Z"/><path class="cls-7" d="M28.69,31.93h-.25a.11.11,0,0,1-.11-.11h0a.11.11,0,0,1,.11-.1h1a.11.11,0,0,1,.11.1h0a.11.11,0,0,1-.11.11h-.25a.11.11,0,0,0-.11.11V33.2a.11.11,0,0,1-.11.11h0a.11.11,0,0,1-.1-.11V32A.11.11,0,0,0,28.69,31.93Z"/><path class="cls-7" d="M29.79,31.84a.12.12,0,0,1,.12-.12h.4c.33,0,.58.12.58.46a.45.45,0,0,1-.22.41.12.12,0,0,0-.05.16l.22.38a.12.12,0,0,1-.11.18h0a.11.11,0,0,1-.1-.06l-.29-.52a.14.14,0,0,0-.11-.06h-.06a.12.12,0,0,0-.13.12v.4a.12.12,0,0,1-.12.12h0a.12.12,0,0,1-.12-.12Zm.49.63c.23,0,.36-.1.36-.29s-.13-.26-.36-.26h-.11A.13.13,0,0,0,30,32v.31a.13.13,0,0,0,.13.12Z"/></svg>