<svg xmlns="http://www.w3.org/2000/svg" xmlns:xlink="http://www.w3.org/1999/xlink" width="830" height="830"><style>.st5,.st6{stroke-width:2;stroke-linecap:round;stroke-linejoin:round;stroke-miterlimit:10}.st5{fill:#950012;stroke:#950012}.st6{stroke:#000}.st7{stroke-width:1.5}.st7,.st8,.st9{stroke:#000;stroke-linecap:round;stroke-linejoin:round;stroke-miterlimit:10}.st9{fill:#950012;stroke:#950012}</style><defs><path id="SVGID_1_" d="M815 415a400 400 0 11-800 0 400 400 0 01800 0z"/></defs><clipPath id="SVGID_2_"><use xlink:href="#SVGID_1_" overflow="visible"/></clipPath><path opacity=".1" clip-path="url(#SVGID_2_)" fill="#950012" stroke="#950012" stroke-width="25" stroke-linecap="round" stroke-linejoin="round" stroke-miterlimit="10" d="M415 362.6L262.6 134 15 629.4 81.7 696l200-400L415 496l133.3-200 200 400 66.7-66.7-200-400-47.6-95.3L415 362.6"/><path d="M815 415a400 400 0 11-800 0 400 400 0 01800 0z" fill="none" stroke="#950012" stroke-width="30" stroke-linecap="round" stroke-linejoin="round" stroke-miterlimit="10"/><g><path d="M194 190v76.3" fill="none" stroke="#950012" stroke-width="10" stroke-linecap="round" stroke-linejoin="round" stroke-dasharray="76.3"/><path fill="none" stroke="#950012" stroke-width="20" stroke-linecap="round" stroke-linejoin="round" stroke-miterlimit="10" d="M233 606.7l6.2 33.3h-90.4l18-96.4 54.3-265.2-54.3-24.1 54.3 289.3z"/><path class="st5" d="M387.8 272.8h-58.9c-2.4 0-4.3 2-4.3 4.3v13c0 13-1.2 31.8-8.7 45.6a4.3 4.3 0 01-6.6 1.3c0-.2-.2-.3-.4-.4a4.3 4.3 0 01-1-5.5c7-12.4 7.8-28.8 7.8-41.1v-21.5c0-2.4 1.9-4.4 4.3-4.4h23.9c2.4 0 4.3-1.9 4.3-4.3v-3.7c0-2.4 2-4.3 4.3-4.3h.6c2.4 0 4.3 1.9 4.3 4.3v3.7c0 2.4 2 4.3 4.3 4.3h26c2.4 0 4.4 2 4.4 4.4 0 2.4-2 4.3-4.3 4.3zM416.2 280.7a94.8 94.8 0 01-6 20c-.8 2-3 2.7-4.8 2l-.6-.3c-2-.8-3-3.2-2-5.2a81.6 81.6 0 005.7-18 3.8 3.8 0 014.7-3h.2c2 .6 3.2 2.5 2.8 4.5zm9.4-27.3c2.1 0 3.8 1.7 3.8 3.8v26c0 18.4-1.8 38.3-16.4 53.5a3.8 3.8 0 01-5.7 0 28 28 0 00-1-1.2 3.8 3.8 0 010-5.3c12.8-13.5 14.3-31 14.3-47v-26c0-2.1 1.7-3.8 3.8-3.8h1.2zm13.2 26.9c2.4 5.8 4.5 12.2 5.5 17.3.4 1.8-.5 3.5-2.1 4.3l-.5.2c-2.2 1-4.8-.3-5.3-2.7-1-5-3-10.9-5-16.2-.6-2 .3-4.2 2.3-5h.2c2-.8 4.1.2 4.9 2zm17.4-21v70.3c0 2.1-1.7 3.8-3.8 3.8h-1.1a3.8 3.8 0 01-3.8-3.8v-70.3c0-2 1.7-3.8 3.8-3.8h1c2.2 0 4 1.7 4 3.8zm9.2 19.9c3 5.6 6 12 7.7 17 .6 1.7-.2 3.7-1.8 4.6l-.4.2c-2.1 1.1-4.7.1-5.5-2.2a116 116 0 00-6.8-16c-1-2-.2-4.2 1.7-5.2 1.8-1 4-.2 5 1.6zm18.8-22.3V335c0 2.1-1.7 3.8-3.8 3.8h-1.3a3.8 3.8 0 01-3.8-3.8v-78c0-2.2 1.7-3.9 3.8-3.9h1.3c2.1 0 3.8 1.7 3.8 3.8zM520.5 307.2c2-1 4.1-1.8 6.1-2.6 1-.4 2 .1 2.2 1l1.2 5c.2.6-.2 1.4-.8 1.7-9.2 4.4-19 9-27 12.5-.7.4-1.7 0-2-.9l-2.3-6c-.3-.7 0-1.7 1-2 2.9-1 6.4-2.4 10.1-4 .6-.2 1-.7 1-1.4v-26.2c0-.8-.7-1.5-1.6-1.5h-8.6c-1 0-1.6-.7-1.6-1.6v-5.3c0-.9.7-1.6 1.6-1.6h8.6c.9 0 1.6-.7 1.6-1.5v-18.2c0-.9.7-1.6 1.6-1.6h5.2c.8 0 1.5.7 1.5 1.6v18.2c0 .8.7 1.5 1.6 1.5h7.5c.9 0 1.6.7 1.6 1.6v5.3c0 .9-.7 1.6-1.6 1.6H520c-.9 0-1.6.7-1.6 1.5v21.4c0 1.1 1.2 1.9 2.2 1.5zm51.2 22.7c4.8 0 6-2 6.8-10.4a1.6 1.6 0 012.3-1.3c1.4.7 3 1.4 4.5 1.8.7.2 1.2.9 1.1 1.6-1.3 12.2-4.1 16.3-14.2 16.3h-22c-11.8 0-15.2-3-15.2-14.5V298c0-1.1-1.1-1.9-2.1-1.4l-3 1.2c-.8.3-1.8 0-2.1-.8l-2.1-5c-.4-.8 0-1.7.8-2l7.6-3.3c.6-.2 1-.8 1-1.4v-22.8c0-1 .6-1.6 1.5-1.6h5.3c.9 0 1.6.7 1.6 1.6v18c0 1 1.1 1.8 2.2 1.4l7.6-3.2c.5-.3 1-.8 1-1.5v-23.8c0-.8.6-1.5 1.5-1.5h5.2c.9 0 1.6.7 1.6 1.5v19c0 1 1.1 1.8 2.2 1.4l8-3.4.4-.2 1.6-1.2.8-.7c.4-.4 1-.5 1.6-.3l4 1.6c.8.3 1.2 1 1 1.9v.3c0 17.8-.2 30.8-.8 34.5-.5 4-2.1 6.1-5.1 7-2.2.7-5.3 1-7.9 1-.7 0-1.4-.6-1.5-1.4l-1-4c-.3-1.1.4-2.2 1.5-2.1h3.2c1.3 0 2.1-.4 2.5-2.3.4-1.8.6-9.9.6-23 0-1.2-1.2-2-2.2-1.5l-8 3.4c-.6.3-1 .8-1 1.5v31.8c0 .9-.6 1.6-1.5 1.6h-5.2c-.9 0-1.6-.7-1.6-1.6v-27c0-1-1.1-1.8-2.2-1.4l-7.6 3.3c-.6.2-1 .8-1 1.4v30.5c0 5.4 1.1 6.4 7.3 6.4h21zM606.6 271.7c-1.9 2.9-4 5.6-6 8a3 3 0 01-5-.7 54 54 0 00-1.4-2.7 3 3 0 01.5-3.5c4.7-4.8 9-11.4 11.8-18.3a3 3 0 013.7-1.7l2.1.7a3 3 0 012 4l-.1.1a3 3 0 002.8 4.2h11.4a3 3 0 013 3v2.5a3 3 0 01-3 3h-19.2c-1 0-2 .5-2.6 1.4zm24.3 51.5l.3 1.5a3 3 0 01-1.5 3.4 376 376 0 00-17.6 9.6 3 3 0 01-4.3-1.3l-1.3-2.3a3 3 0 01.5-3.7 8.7 8.7 0 002.6-6.3v-14.4a3 3 0 00-3-3H599a3 3 0 01-3-3v-2a3 3 0 013-3h7.6a3 3 0 003-3v-5.4a3 3 0 00-3-3h-2.5a3 3 0 01-3-3v-2a3 3 0 013-3h22a3 3 0 013 3v2a3 3 0 01-3 3h-5a3 3 0 00-3 3v5.4a3 3 0 003 3h7.5a3 3 0 013 3v2a3 3 0 01-3 3h-7.4a3 3 0 00-3 3v10.6a3 3 0 004.3 2.7l4-2a3 3 0 014.4 2.2zm32.5-17.3a47 47 0 0016.4 24.3 3 3 0 01.5 4.4 42 42 0 00-2 2.5 3 3 0 01-4.1.7A47 47 0 01660 319a3 3 0 00-5.5-.1c-3.5 6.9-8.7 13.5-16.4 19.1a3 3 0 01-4-.4l-1.8-2a3 3 0 01.3-4.5 44.9 44.9 0 0017.7-25.4 3 3 0 00-2.9-3.8h-11.3a3 3 0 01-3-3v-2.4a3 3 0 013-3h13.6a3 3 0 003-3l.2-9v-2a3 3 0 00-3-3H645a3 3 0 00-3 2.2c-.8 2.8-1.8 5.4-2.9 7.8a3 3 0 01-4.3 1.3l-2-1.2a3 3 0 01-1.1-3.9 84.5 84.5 0 006.4-24.2 3 3 0 013.4-2.5l2.3.3a3 3 0 012.6 3.4l-.9 5.1a3 3 0 003 3.6h1.3a3 3 0 003-3v-10a3 3 0 013-3h2.7a3 3 0 013 3v10a3 3 0 003 3H676a3 3 0 013 3v2.1a3 3 0 01-3 3h-11.2a3 3 0 00-3 3v2l-.3 8.7a3 3 0 003 3.2h13.8a3 3 0 013 3v2.4a3 3 0 01-3 3h-12a3 3 0 00-2.8 4z"/><path class="st6" d="M387.8 418v34c0 1.6-1.3 2.9-2.9 2.9h-3.5a2.8 2.8 0 01-2.8-2.8c0-1.6-1.3-2.9-2.9-2.9h-51a2.8 2.8 0 00-2.9 2.9v.1c0 1.6-1.2 2.9-2.8 2.9h-3.4a2.8 2.8 0 01-2.8-2.9v-34.1c0-1.6 1.3-2.9 2.8-2.9h3.4c1.6 0 2.8 1.3 2.8 2.9v19.6c0 1.5 1.3 2.8 2.9 2.8H342c1.6 0 2.8-1.3 2.8-2.8v-25.4c0-1.5-1.2-2.8-2.8-2.8h-22.8a2.8 2.8 0 01-2.9-2.8v-27.9c0-1.5 1.3-2.8 2.9-2.8h3.2c1.6 0 2.9 1.3 2.9 2.8V398c0 1.6 1.2 2.9 2.8 2.9h14c1.5 0 2.7-1.3 2.7-2.9v-27.5c0-1.6 1.3-2.9 2.9-2.9h3.4c1.6 0 2.9 1.3 2.9 2.9V398c0 1.6 1.2 2.9 2.8 2.9h14.9c1.5 0 2.8-1.3 2.8-2.9v-19.3c0-1.5 1.3-2.8 2.8-2.8h3.8c1.5 0 2.8 1.3 2.8 2.8v28c0 1.5-1.3 2.8-2.8 2.8h-24.3a2.8 2.8 0 00-2.8 2.8v25.4c0 1.5 1.2 2.8 2.8 2.8h18.8c1.6 0 2.8-1.3 2.8-2.8V418c0-1.6 1.3-2.9 2.9-2.9h3.5c1.6 0 2.9 1.3 2.9 2.9zM441.2 430.5l.4 4.2c.1 1-.5 2-1.5 2.2l-34.3 8a2 2 0 01-2.4-1.6l-1-5a2 2 0 011.6-2.3c5.6-1 12.6-2.5 20.2-4l-.3-.2a326 326 0 004.7-33.6 2 2 0 012.4-1.8l4.6.8a2 2 0 011.6 2.3c-1.2 9.1-2.8 19.4-4.5 27.6a2 2 0 002.4 2.4l3.6-.8a2 2 0 012.5 1.8zm-2.6-36.9h-32.7a2 2 0 01-2-2v-4.3c0-1.1.9-2 2-2h10.4a2 2 0 002-2v-13c0-1.2.9-2.1 2-2.1h4.3a2 2 0 012 2v13c0 1.2 1 2 2 2h10a2 2 0 012 2.1v4.3c0 1.1-1 2-2 2zm-28 35.2c-.1-8.1-1.4-19.2-3.2-28.4a2 2 0 011.6-2.4l3.4-.6a2 2 0 012.3 1.6 193 193 0 013.6 29 2 2 0 01-1.7 2.1l-3.6.6a2 2 0 01-2.3-2zm56.6-32.6V410c0 1 1 2 2 2h15a2 2 0 012 2v38.5a2 2 0 01-2 2h-5a2 2 0 01-2-2 2 2 0 00-2-2h-22a2 2 0 00-2 2v.4a2 2 0 01-2 2h-4.6a2 2 0 01-2-2V414c0-1.1.9-2 2-2H456a2 2 0 002-2v-41.1c0-1.1 1-2 2-2h5.1a2 2 0 012 2v14.8c0 1 1 2 2 2h18.9a2 2 0 012 2v4.5a2 2 0 01-2 2h-18.8a2 2 0 00-2 2zm8 24.2h-22a2 2 0 00-2 2v17.7c0 1.1 1 2 2 2h22a2 2 0 002-2v-17.7c0-1-.9-2-2-2zM530.4 416.3l-9 2.6a2 2 0 00-1.4 1.8v24.4c0 4.6-1 7-3.8 8.3a28.7 28.7 0 01-11.8 1.6 2 2 0 01-1.9-1.5c-.3-1.2-.7-2.7-1.2-4a2 2 0 011.8-2.6h6.2c1.3 0 1.8-.3 1.8-1.8v-20.7a2 2 0 00-2.4-1.8l-7.3 2a2 2 0 01-2.4-1.3l-1.3-4.9a2 2 0 011.4-2.4c3.1-.7 6.7-1.5 10.6-2.6a2 2 0 001.4-1.8v-15.7c0-1.1-.8-2-1.9-2h-8.7c-1 0-2-.8-2-1.9v-4.4c0-1 1-2 2-2h8.7c1 0 2-.8 2-1.8V369c0-1 .8-2 1.9-2h5c1 0 1.9 1 1.9 2v14.8c0 1 .8 1.9 1.9 1.9h6.6c1 0 2 .8 2 1.9v4.4c0 1-1 2-2 2H522c-1 0-2 .8-2 1.9V408a2 2 0 002.5 1.9l6.3-1.7a2 2 0 012.4 1.5l.6 4.5a2 2 0 01-1.3 2zm7.5-3.7h41.7c1 0 1.9 1 1.9 2v38c0 1-.9 1.9-2 1.9h-5c-1 0-1.8-.9-1.8-2 0-1-.9-1.8-2-1.8h-24.3c-1.1 0-2 .8-2 1.9v.5c0 1-.8 1.9-1.9 1.9H538c-1 0-2-.9-2-2v-38.4c0-1 1-2 2-2zm33.4-15c4.5 0 5.6-1.3 6.2-8.5a2 2 0 012.7-1.6l4.1 1.5a2 2 0 011.4 2c-1.3 11.7-4.2 14.7-13.8 14.7h-20.6c-12 0-15.2-2.5-15.2-12v-24.5c0-1 .9-2 2-2h4.9c1 0 2 1 2 2v9.2a2 2 0 002.3 1.9c9.2-2.2 18.6-5 25-7.7a2 2 0 012 .4l3.6 3.5a2 2 0 01-.6 3.2c-9 3.3-20.4 6-30.8 8a2 2 0 00-1.6 1.9v4.1c0 3.4 1.2 4 7 4h19.4zM544.4 422v4.2c0 1 .9 2 2 2h24.3c1.1 0 2-1 2-2V422c0-1-.9-2-2-2h-24.3c-1.1 0-2 .9-2 2zm28.3 19.6V437c0-1-.9-1.9-2-1.9h-24.3c-1.1 0-2 .9-2 2v4.4c0 1.1.9 2 2 2h24.3c1.1 0 2-.9 2-2zM643 387.7v1.8c0 1.9 1.6 3.5 3.5 3.5h25.7c1.9 0 3.5 1.5 3.5 3.5v48.8c0 4.8-1.3 7-4.7 8.2-3 1.2-7.6 1.4-13.9 1.4-1.5 0-2.8-1-3.3-2.4l-.2-.4c-.8-2.3.9-4.8 3.4-4.7l7.2-.1c1.8 0 2.3-.5 2.3-2v-40.6c0-2-1.5-3.5-3.5-3.5h-50c-2 0-3.5 1.6-3.5 3.5v46.7c0 1.9-1.6 3.5-3.5 3.5h-1.9c-2 0-3.5-1.6-3.5-3.5v-55c0-1.9 1.6-3.4 3.5-3.4h25.6c2 0 3.5-1.6 3.5-3.5v-1.8c0-1.9-1.5-3.5-3.5-3.5h-30.1c-2 0-3.5-1.5-3.5-3.5v-1.3c0-2 1.6-3.5 3.5-3.5h30.1c2 0 3.5-1.6 3.5-3.5v-1.5c0-2 1.6-3.5 3.5-3.5h2.8c2 0 3.5 1.5 3.5 3.5v1.5c0 2 1.6 3.5 3.5 3.5h30c1.9 0 3.5 1.6 3.5 3.5v1.3c0 2-1.6 3.5-3.5 3.5h-30c-1.9 0-3.5 1.6-3.5 3.5zm-1 53.4v8.3c0 1.9-1.6 3.5-3.5 3.5H637c-1.9 0-3.5-1.6-3.5-3.5V441c0-2-1.5-3.5-3.5-3.5h-12.3c-1.9 0-3.5-1.6-3.5-3.5v-.3c0-2 1.6-3.5 3.5-3.5H630c2 0 3.5-1.6 3.5-3.5v-1.2c0-2-1.5-3.5-3.5-3.5h-10.2a3.5 3.5 0 010-7h.9c2.6 0 4.3-2.7 3.2-5l-1.2-2.4c-1-1.9 0-4.3 2-5h.5c1.5-.5 3 .1 4 1.4 1.6 2.5 3 5.4 3.9 7.7a1 1 0 01-.6 1.3c-1.1.4-.9 2 .3 2h7.4c1.3 0 2.5-.7 3.1-1.8 1.4-2.6 3-5.8 4.1-8.5a3.5 3.5 0 014.2-2l.5.1c2 .6 3.1 3.1 2 5l-1 2a3.5 3.5 0 003 5.2h.5c2 0 3.5 1.5 3.5 3.5 0 1.9-1.6 3.5-3.5 3.5h-11.1c-2 0-3.5 1.5-3.5 3.5v1.2c0 2 1.5 3.5 3.5 3.5h13c2 0 3.5 1.6 3.5 3.5v.3c0 2-1.5 3.5-3.5 3.5h-13c-2 0-3.5 1.6-3.5 3.5z"/><path class="st7" d="M311.4 512.1H333c1.7 0 3.1 1.4 3.1 3.2 0 1.7-1.4 3.1-3.1 3.1h-14.2a3.1 3.1 0 00-3.1 3.2v6.8c0 1.7 1.4 3.1 3.1 3.1h11c1.8 0 3.2 1.4 3.2 3.2 0 1.7-1.4 3.1-3.2 3.1h-11a3.1 3.1 0 00-3.1 3.2v9c0 1.7 1.4 3 3.1 3h14.9c1.7 0 3.1 1.5 3.1 3.2 0 1.7-1.4 3.1-3.1 3.1h-22.3a3.1 3.1 0 01-3.1-3v-41c0-1.8 1.3-3.2 3-3.2zM349.2 539.2l-6.3-10.1c-1.4-2.2.2-5 2.7-5h.2c1.2 0 2.2.6 2.8 1.6l3.2 5.4.1.1c1 2 2.2 4 3.3 5.9h.3l3-6 2.7-5.3c.6-1 1.7-1.7 2.9-1.7 2.5 0 4 2.7 2.8 4.9l-6.6 11c-.6 1-.6 2.4 0 3.4l7 10.9c1.5 2.2 0 5-2.7 5h-.2c-1.1 0-2.2-.6-2.8-1.5l-3.6-6-3.7-6.2h-.3l-3.3 6.2-3.1 5.8c-.6 1-1.7 1.7-2.9 1.7-2.5 0-4-2.8-2.7-5l7.3-11.7c.6-1 .6-2.3 0-3.4zM380.8 508.7c2.7 0 4.6 1.8 4.6 4.4 0 3.2-2.8 5-6.4 4.2a3.5 3.5 0 01-2.5-2.5c-1-3.6 1.1-6 4.3-6zm0 15.4c2 0 3.7 1.6 3.7 3.7v27.8c0 2-1.6 3.7-3.6 3.7s-3.7-1.6-3.7-3.7v-27.8c0-2 1.6-3.7 3.7-3.7zM396.7 547.8v-15.2c0-1.5-1.1-2.6-2.6-2.6a2.6 2.6 0 01-2.5-2.6v-.5c0-1.4 1-2.5 2.4-2.6h.9c1.3-.1 2.3-1.1 2.4-2.4l.4-5.2a2.6 2.6 0 012.6-2.3h1.2c1.4 0 2.6 1.1 2.6 2.5v4.6c0 1.4 1.1 2.6 2.5 2.6h4c1.4 0 2.6 1.1 2.6 2.6v.7c0 1.4-1.1 2.6-2.6 2.6h-4a2.6 2.6 0 00-2.6 2.5v15.3c0 4.3 1.5 6.4 5.2 6.4l1.5-.1c1.3-.3 2.6.6 2.9 1.9v.4c.4 1.4-.4 2.8-1.8 3.2-1.4.3-2.9.5-4.4.5-8 0-10.7-4.9-10.7-12.3zM433.4 535.9c0-15.4 9.4-24.6 22-24.6 5 0 8.8 1.7 11.6 3.8a3 3 0 01.4 4.4v.1a3 3 0 01-4.1.6c-2-1.5-4.4-2.4-7.7-2.4-8.8 0-14.6 6.8-14.6 17.8 0 11.2 5.2 18 14.9 18 2 0 4-.3 5.7-1.1a3 3 0 001.7-2.8v-6.4a3 3 0 00-3-3H457a3 3 0 110-6h10a3 3 0 013 3v16a3 3 0 01-1 2.3c-3.2 2.6-8.1 4.5-13.9 4.5-12.5 0-21.7-8.8-21.7-24.2zM479.7 546.3v-19c0-1.8 1.4-3.2 3.2-3.2h1c1.7 0 3.2 1.4 3.2 3.2v18c0 6 1.7 8.5 5.8 8.5 3 0 5.2-1.3 7.7-4.3.5-.6.8-1.3.8-2v-20.2c0-1.8 1.4-3.2 3.2-3.2h1c1.7 0 3.1 1.4 3.1 3.2v28.9c0 1.7-1.4 3.1-3.1 3.1-1.6 0-3-1.2-3.2-2.8l-.2-2.5h-.2c-3.2 3.7-6.7 6.1-11.5 6.1-7.5 0-10.8-4.9-10.8-13.9zM519 512.4c.3-2.2 2-3.6 4.5-3.6 2.7 0 4.6 1.7 4.6 4.3 0 2.5-1.7 4.2-4.1 4.4-2.9.2-5.4-2.3-5-5.1zm.9 11.7h7.2v35.2H520v-35.1-.1zM535.8 541.7c0-11.4 7.3-18.5 15.1-18.5 2 0 3.7.4 5.2 1 2 1 4.1-.6 4-2.8v-10.2c0-1.6 1.3-2.9 2.9-2.9h1.5c1.6 0 3 1.3 3 2.9v45.2c0 1.6-1.4 2.9-3 2.9h-.6c-1.4 0-9.6.8-13.5.8-8.9 0-14.6-6.7-14.6-18.4zm24.3 7v-14.8c0-.9-.4-1.8-1.1-2.3a10.6 10.6 0 00-6.7-2.3c-4.9 0-8.9 4.7-8.9 12.3 0 8 3.2 12.4 8.7 12.4 2.6 0 4.9-1 7.1-3.3a3 3 0 00.9-2zM576 541.7c0-11.4 7.9-18.5 16-18.5 9.4 0 14.5 6.7 14.5 16.6v1.3a2.7 2.7 0 01-2.8 2.5h-17.2a2.7 2.7 0 00-2.6 3.5c1.6 4.6 5.3 7.3 10.2 7.3 2.3 0 4.3-.5 6.2-1.4 1.3-.6 2.8-.1 3.5 1.1.7 1.3.2 3-1.2 3.7-2.7 1.4-6 2.3-9.4 2.3-9.6 0-17.2-6.8-17.2-18.4zm21.1-3.2c1.7 0 3-1.6 2.7-3.3-.9-4-3.5-6.2-7.6-6.2-3.4 0-6.5 2-8 5.8-.8 1.7.5 3.7 2.4 3.7h10.5z"/><path class="st8" d="M309 586.5h16.3c1.3 0 2.3 1 2.3 2.3v.1c0 1.3-1 2.3-2.3 2.3h-10.7c-1.3 0-2.3 1-2.3 2.4v6.1c0 1.3 1 2.3 2.3 2.3h8.4c1.3 0 2.3 1 2.3 2.4 0 1.3-1 2.3-2.3 2.3h-8.4c-1.3 0-2.3 1-2.3 2.3v10.6c0 1.3-1 2.3-2.4 2.3h-.9c-1.3 0-2.3-1-2.3-2.3v-30.7c0-1.3 1-2.4 2.3-2.4zM331.4 604c0-11.3 6.3-18.1 15.4-18.1 9 0 15.4 6.8 15.4 18.2s-6.3 18.4-15.4 18.4c-9 0-15.4-7-15.4-18.4zm25 0c0-8.2-3.8-13.2-9.6-13.2s-9.7 5-9.7 13.3 3.8 13.6 9.7 13.6 9.7-5.4 9.7-13.6zM369.5 589.2c0-1.5 1.2-2.7 2.7-2.7h8.9c7.3 0 12.8 2.7 12.8 10.3 0 4.4-2 7.3-5 9a2.7 2.7 0 00-1 3.8l4.9 8.2c1 1.8-.3 4.1-2.4 4.1-1 0-1.9-.5-2.4-1.4l-6.4-11.5a2.7 2.7 0 00-2.4-1.4h-1.4a2.7 2.7 0 00-2.7 2.8v8.8c0 1.5-1.2 2.7-2.7 2.7h-.2a2.7 2.7 0 01-2.7-2.7v-30zm11 14c5 0 7.9-2.1 7.9-6.4s-2.8-5.8-8-5.8h-2.6a2.7 2.7 0 00-2.7 2.7v6.8c0 1.5 1.2 2.7 2.7 2.7h2.6z"/><path class="st9" d="M409.9 604.3c0-11.5 7.1-18.4 16.5-18.4a14 14 0 018.7 2.9c1 .8 1.2 2.3.4 3.3h-.1c-.8 1-2.2 1.1-3.2.4a9.4 9.4 0 00-5.7-1.7c-6.5 0-10.9 5-10.9 13.3 0 8.4 3.9 13.6 11.2 13.6 1.5 0 3.1-.3 4.3-1 .8-.3 1.2-1.1 1.2-2V610c0-1.2-1-2.2-2.2-2.2h-2.5c-1.2 0-2.3-1-2.3-2.3 0-1.3 1-2.3 2.3-2.3h7.5c1.3 0 2.3 1 2.3 2.3v12c0 .7-.3 1.3-.8 1.8-2.4 2-6 3.3-10.4 3.3-9.4 0-16.3-6.6-16.3-18.2zM443.4 618l15-23.1c1-1.6 0-3.7-2-3.7h-9.3c-1.4 0-2.4-1-2.4-2.3 0-1.3 1-2.4 2.4-2.4h18.2c1.3 0 2.3 1 2.3 2.4v.3c0 .4 0 .9-.3 1.3l-15 23c-1 1.6.1 3.7 2 3.7h11.2c1.3 0 2.3 1 2.3 2.3 0 1.3-1 2.4-2.3 2.4h-20c-1.4 0-2.4-1-2.4-2.4v-.3c0-.4.1-.9.3-1.2zM477 586.5h2.2c1 0 2 .7 2.4 1.6l5.9 16.3 2.3 7.1h.3c.8-2.3 1.4-4.7 2.3-7l5.8-16.3c.3-1 1.2-1.7 2.3-1.7h2.2c1.4 0 2.5 1.1 2.5 2.5v30.4c0 1.4-1.1 2.5-2.5 2.5h-.2a2.5 2.5 0 01-2.5-2.5v-15c0-3.2.4-7.7.7-11h-.2l-2.8 8.2-5.5 15.2c-.4 1-1.3 1.7-2.4 1.7-1 0-2-.7-2.3-1.6l-5.6-15.3-2.8-8.1h-.2c.3 3.2.7 7.7.7 11v15c0 1.3-1.1 2.4-2.5 2.4a2.5 2.5 0 01-2.5-2.5V589c0-1.4 1.1-2.5 2.5-2.5zM519.3 591.2h-5.7c-1.3 0-2.3-1-2.3-2.3 0-1.3 1-2.4 2.3-2.4h21.7c1.3 0 2.3 1 2.3 2.4 0 1.3-1 2.3-2.3 2.3h-5.7c-1.3 0-2.4 1-2.4 2.4v26c0 1.2-1 2.3-2.3 2.3h-.9c-1.3 0-2.4-1-2.4-2.4v-26c0-1.2-1-2.3-2.3-2.3zM543.7 589.2c0-1.5 1.2-2.7 2.7-2.7h8.9c7.3 0 12.8 2.7 12.8 10.3 0 4.4-2 7.3-5 9a2.7 2.7 0 00-1 3.8l4.9 8.2c1 1.8-.3 4.1-2.4 4.1-1 0-1.9-.5-2.4-1.4l-6.4-11.5a2.7 2.7 0 00-2.4-1.4H552a2.7 2.7 0 00-2.7 2.8v8.8c0 1.5-1.2 2.7-2.7 2.7h-.2a2.7 2.7 0 01-2.7-2.7v-30zm11 14c5 0 7.8-2.1 7.8-6.4s-2.7-5.8-7.9-5.8H552a2.7 2.7 0 00-2.7 2.7v6.8c0 1.5 1.2 2.7 2.7 2.7h2.6z"/></g></svg>