<svg xmlns="http://www.w3.org/2000/svg" xmlns:xlink="http://www.w3.org/1999/xlink" id="Capa_1" x="0" y="0" enable-background="new 0 0 490.7 490.7" version="1.1" viewBox="0 0 490.7 490.7" xml:space="preserve"><g><g><path d="M480,0H10.7C4.8,0,0,4.8,0,10.7V480c0,5.9,4.8,10.7,10.7,10.7H96c5.9,0,10.7-4.8,10.7-10.7v-10.7H384V480 c0,5.9,4.8,10.7,10.7,10.7H480c5.9,0,10.7-4.8,10.7-10.7V10.7C490.7,4.8,485.9,0,480,0z M469.3,469.3h-64v-10.7 c0-5.9-4.8-10.7-10.7-10.7H96c-5.9,0-10.7,4.8-10.7,10.7v10.7h-64v-448h448V469.3z"/></g></g><g><g><path d="M394.7,106.7H96c-5.9,0-10.7,4.8-10.7,10.7v341.3c0,5.9,4.8,10.7,10.7,10.7h298.7c5.9,0,10.7-4.8,10.7-10.7V117.3 C405.3,111.4,400.6,106.7,394.7,106.7z M384,448H106.7V128H384V448z"/></g></g><g><g><path d="M245.3,106.7c-5.9,0-10.7,4.8-10.7,10.7v341.3c0,5.9,4.8,10.7,10.7,10.7s10.7-4.8,10.7-10.7V117.3 C256,111.4,251.2,106.7,245.3,106.7z"/></g></g><g><g><circle cx="437.3" cy="224" r="10.7"/></g></g><g><g><circle cx="437.3" cy="266.7" r="10.7"/></g></g><g><g><path d="M210.2,67.1l-21.3-21.3c-4.2-4.2-10.9-4.2-15.1,0l-21.3,21.3c-4.2,4.2-4.2,10.9,0,15.1s10.9,4.2,15.1,0l13.8-13.8 l13.8,13.8c2.1,2.1,4.8,3.1,7.6,3.1s5.5-1,7.6-3.1C214.4,78.1,214.4,71.3,210.2,67.1z"/></g></g><g><g><path d="M338.2,45.8c-4.2-4.2-10.9-4.2-15.1,0l-13.8,13.8l-13.8-13.8c-4.2-4.2-10.9-4.2-15.1,0s-4.2,10.9,0,15.1l21.3,21.3 c2.1,2.1,4.8,3.1,7.6,3.1s5.5-1,7.5-3.1l21.3-21.3C342.4,56.7,342.4,50,338.2,45.8z"/></g></g></svg>